<?xml version="1.0" standalone="no"?>
<!DOCTYPE svg PUBLIC "-//W3C//DTD SVG 20010904//EN"
 "http://www.w3.org/TR/2001/REC-SVG-20010904/DTD/svg10.dtd">
<svg version="1.0" xmlns="http://www.w3.org/2000/svg"
 width="33.000000pt" height="40.000000pt" viewBox="0 0 33.000000 40.000000"
 preserveAspectRatio="xMidYMid meet">
<metadata>
Created by potrace 1.13, written by Peter Selinger 2001-2015
</metadata>
<g transform="translate(0.000000,40.000000) scale(0.100000,-0.100000)"
fill="#000000" stroke="none">
<path d="M245 376 c-27 -13 -59 -34 -71 -47 -40 -46 -74 -104 -75 -129 -1 -25
-1 -25 -14 5 -13 28 -15 29 -21 9 -4 -16 -11 -20 -26 -16 -18 4 -20 2 -13 -29
4 -19 11 -35 16 -37 14 -5 11 -40 -6 -72 -9 -17 -11 -31 -5 -35 5 -3 18 12 29
34 14 26 29 41 43 43 15 2 23 10 23 23 0 11 9 24 20 28 13 5 16 10 8 15 -7 5
10 24 45 52 33 26 72 71 93 105 50 83 42 91 -46 51z"/>
</g>
</svg>
