<?xml version="1.0" standalone="no"?>
<!DOCTYPE svg PUBLIC "-//W3C//DTD SVG 20010904//EN"
 "http://www.w3.org/TR/2001/REC-SVG-20010904/DTD/svg10.dtd">
<svg version="1.0" xmlns="http://www.w3.org/2000/svg"
 width="90.000000pt" height="157.000000pt" viewBox="0 0 90.000000 157.000000"
 preserveAspectRatio="xMidYMid meet">
<metadata>
Created by potrace 1.13, written by Peter Selinger 2001-2015
</metadata>
<g transform="translate(0.000000,157.000000) scale(0.100000,-0.100000)"
fill="#000000" stroke="none">
<path d="M754 1533 c-38 -41 -131 -172 -141 -201 -4 -9 -28 -55 -55 -102 -26
-47 -59 -119 -73 -160 -15 -41 -42 -106 -60 -145 -50 -103 -105 -249 -112
-301 -3 -24 -10 -47 -14 -50 -5 -3 -11 -27 -15 -55 -4 -29 -11 -48 -18 -46
-14 5 -26 65 -19 95 7 28 -13 29 -28 1 -12 -23 -14 -112 -4 -129 4 -7 -2 -9
-19 -4 -29 7 -89 -10 -106 -31 -10 -12 -5 -13 27 -8 35 6 37 5 24 -10 -12 -15
-11 -17 9 -17 22 0 22 -1 7 -18 -21 -23 -22 -33 -2 -26 26 10 16 -13 -17 -42
l-33 -27 27 5 c31 6 32 5 17 -23 -6 -12 -8 -27 -5 -36 5 -12 10 -11 27 8 l20
24 -12 -25 c-7 -14 -51 -62 -97 -108 -62 -60 -82 -86 -74 -94 13 -13 58 21
142 106 30 31 58 56 62 56 4 0 8 -11 8 -24 0 -14 5 -28 10 -31 6 -4 10 6 10
22 0 15 4 35 9 42 11 17 74 20 106 6 l20 -8 -20 23 -20 23 40 -6 c22 -3 51 -9
65 -13 l25 -7 -21 24 c-12 13 -25 34 -29 47 -5 19 -3 22 18 22 13 0 36 -9 50
-20 14 -11 28 -16 31 -11 7 10 -13 61 -23 61 -3 0 -13 4 -20 9 -13 8 -11 13 6
28 12 10 30 32 40 49 10 17 40 58 66 90 26 32 71 106 98 164 28 58 65 134 84
170 52 102 81 195 105 335 32 186 18 354 -33 390 -32 22 -44 19 -83 -22z"/>
</g>
</svg>
