<?xml version="1.0" standalone="no"?>
<!DOCTYPE svg PUBLIC "-//W3C//DTD SVG 20010904//EN"
 "http://www.w3.org/TR/2001/REC-SVG-20010904/DTD/svg10.dtd">
<svg version="1.0" xmlns="http://www.w3.org/2000/svg"
 width="223.000000pt" height="180.000000pt" viewBox="0 0 223.000000 180.000000"
 preserveAspectRatio="xMidYMid meet">
<metadata>
Created by potrace 1.13, written by Peter Selinger 2001-2015
</metadata>
<g transform="translate(0.000000,180.000000) scale(0.100000,-0.100000)"
fill="#000000" stroke="none">
<path d="M13 1769 c-11 -28 -11 -122 0 -184 8 -44 56 -205 73 -242 8 -17 14
-35 14 -41 0 -27 71 -143 115 -187 27 -27 63 -70 80 -95 36 -52 98 -120 111
-120 5 0 34 -26 65 -58 31 -31 85 -74 120 -95 35 -20 56 -37 46 -37 -10 0 -15
-4 -12 -10 10 -16 178 -133 207 -144 16 -6 27 -16 25 -22 -5 -25 196 -164 281
-193 35 -12 86 -33 113 -46 26 -14 60 -25 73 -25 18 0 24 -4 20 -15 -5 -12 2
-15 30 -15 l36 0 -25 -44 c-14 -25 -25 -52 -25 -61 0 -13 6 -13 40 5 22 11 40
17 40 13 0 -5 4 -3 8 2 4 6 16 18 28 28 21 17 21 17 16 -33 -3 -33 -1 -50 7
-50 6 0 11 10 12 23 0 20 1 20 12 5 10 -15 12 -14 22 10 10 25 12 21 25 -51 7
-42 16 -77 21 -77 4 0 14 -2 22 -5 8 -4 14 0 14 10 0 8 -5 15 -10 15 -6 0 -7
3 -4 6 3 4 0 16 -8 28 -17 23 -20 106 -5 106 6 0 10 -6 10 -13 0 -8 11 -24 25
-37 l25 -23 0 69 1 69 19 -35 c11 -19 19 -45 20 -57 0 -44 20 -22 20 22 0 25
2 45 5 45 3 0 15 -9 27 -20 22 -21 38 -26 38 -12 0 4 -13 20 -30 35 -39 37
-38 51 3 34 17 -8 59 -26 92 -40 171 -72 337 -106 363 -75 14 18 2 31 -38 42
-14 3 -68 18 -120 32 -52 14 -108 28 -124 31 -58 10 -131 50 -160 87 l-28 38
28 -3 c44 -3 64 0 64 10 0 6 -17 11 -37 13 -48 4 -50 24 -4 55 30 20 31 23 11
23 -16 0 -20 4 -16 15 7 20 -1 19 -31 -5 -38 -30 -48 -24 -20 10 30 35 81 139
73 148 -4 3 -19 -6 -34 -19 -33 -31 -78 -59 -93 -59 -6 0 -2 15 10 36 26 44
26 47 1 34 -26 -14 -25 0 1 34 11 14 17 26 12 26 -16 0 -79 -42 -100 -67 l-21
-26 -29 46 c-30 51 -48 63 -33 21 12 -31 12 -34 2 -34 -9 0 -40 23 -93 69 -40
34 -63 36 -38 4 7 -10 -18 12 -56 48 -87 82 -240 224 -374 347 l-101 94 0 -38
c0 -51 -17 -33 -29 29 -5 29 -18 56 -33 70 -13 12 -43 45 -67 74 -85 105 -138
153 -226 207 -49 31 -95 60 -101 65 -6 5 -20 11 -31 15 -11 4 -40 25 -64 48
-52 49 -212 136 -261 142 -30 4 -36 1 -45 -25z"/>
</g>
</svg>
