<?xml version="1.0" standalone="no"?>
<!DOCTYPE svg PUBLIC "-//W3C//DTD SVG 20010904//EN"
 "http://www.w3.org/TR/2001/REC-SVG-20010904/DTD/svg10.dtd">
<svg version="1.0" xmlns="http://www.w3.org/2000/svg"
 width="664.000000pt" height="758.000000pt" viewBox="0 0 664.000000 758.000000"
 preserveAspectRatio="xMidYMid meet">

<g transform="translate(0.000000,758.000000) scale(0.100000,-0.100000)"
fill="#f43232" stroke="none">
<path d="M3415 7569 c-152 -7 -331 -25 -346 -35 -5 -3 -48 -10 -97 -15 -98
-11 -207 -26 -237 -34 -11 -3 -65 -14 -120 -25 -116 -22 -203 -47 -335 -94
-52 -19 -111 -39 -130 -46 -163 -57 -448 -190 -540 -251 -36 -24 -82 -52 -102
-63 -21 -10 -78 -52 -127 -92 -50 -40 -107 -82 -128 -93 -21 -10 -47 -29 -58
-41 -11 -12 -37 -31 -57 -41 -21 -11 -38 -24 -38 -29 0 -15 -179 -198 -217
-221 -19 -12 -32 -24 -29 -26 3 -3 -3 -13 -13 -22 -58 -53 -194 -216 -229
-276 -23 -38 -71 -105 -108 -149 -36 -43 -73 -95 -81 -115 -8 -20 -23 -47 -33
-61 -9 -14 -36 -70 -59 -125 -24 -55 -57 -122 -76 -150 -21 -33 -62 -139 -118
-306 -92 -275 -96 -296 -118 -609 -19 -277 -2 -530 51 -770 10 -47 22 -109 25
-137 8 -64 22 -76 31 -28 3 19 10 38 15 41 12 7 72 -54 87 -89 15 -35 40 -35
48 1 14 64 39 110 92 167 38 40 63 79 75 113 18 54 31 65 42 35 6 -20 69 -63
89 -63 15 0 53 -121 62 -195 3 -27 12 -77 19 -110 8 -33 22 -141 30 -240 8
-99 20 -218 25 -265 14 -127 14 -815 -1 -935 -6 -55 -11 -111 -10 -125 1 -14
-3 -52 -8 -85 -9 -56 -14 -92 -41 -308 -25 -191 -34 -253 -75 -472 -24 -126
-49 -268 -55 -315 -7 -47 -19 -101 -27 -120 -10 -24 -14 -69 -13 -147 1 -98
-1 -113 -17 -122 -17 -10 -16 -10 3 -11 52 0 66 -57 39 -160 -8 -32 -19 -115
-23 -184 l-7 -126 107 0 107 0 21 30 c25 36 39 110 21 110 -7 0 -20 -14 -29
-31 -35 -62 -38 -65 -51 -40 -12 22 -12 23 22 126 7 23 173 199 180 192 1 -1
18 11 38 26 33 25 59 35 59 21 0 -3 -11 -22 -25 -42 -14 -20 -25 -45 -25 -56
0 -33 26 0 71 90 27 56 55 96 81 117 39 32 110 131 187 261 42 71 51 106 29
106 -14 0 -68 -63 -68 -79 0 -12 -19 -15 -21 -3 -8 37 -7 81 2 102 20 49 148
125 335 200 128 50 105 51 -34 1 -128 -47 -244 -82 -250 -77 -2 2 3 28 11 58
9 29 20 78 26 108 5 30 37 174 70 320 33 146 66 301 75 345 8 44 19 91 24 105
5 14 12 48 16 75 13 93 15 94 51 30 19 -32 41 -62 49 -67 21 -12 20 -1 -3 28
-10 13 -40 86 -66 161 -26 76 -60 170 -75 208 -16 39 -60 163 -98 276 -66 193
-103 290 -223 568 -27 63 -47 116 -46 117 2 2 27 -12 57 -31 72 -45 128 -74
133 -68 3 2 -13 38 -34 81 -71 141 -87 286 -38 339 38 40 103 66 150 58 l40
-7 -7 -44 c-5 -35 -3 -44 9 -44 8 0 20 7 27 15 15 18 63 20 93 4 11 -7 39 -12
61 -13 38 -1 41 -3 44 -31 2 -25 -2 -32 -28 -43 -27 -12 -30 -18 -30 -59 0
-60 -15 -73 -88 -73 -50 0 -62 3 -75 22 -16 23 -16 22 -16 -15 -1 -23 10 -60
28 -95 102 -197 272 -218 358 -43 18 37 14 71 -28 237 -20 75 -24 82 -64 107
-24 15 -49 34 -56 43 -10 13 -9 16 9 21 39 10 23 30 -55 68 -196 95 -375 98
-454 7 -26 -30 -43 -39 -86 -47 -67 -12 -73 -28 -13 -35 25 -3 44 -8 43 -12
-2 -5 -3 -14 -3 -20 -1 -28 -36 -57 -76 -64 l-42 -6 -43 73 c-24 41 -67 114
-96 164 -29 49 -53 95 -53 102 0 7 12 15 27 19 97 21 113 35 113 103 0 69 12
92 28 56 6 -14 19 -25 28 -25 17 0 17 18 -2 250 l-5 65 51 22 c29 13 56 21 60
18 4 -3 13 -25 19 -50 15 -62 31 -57 31 10 0 30 4 55 10 55 14 0 30 -35 30
-64 0 -37 17 -41 58 -13 33 21 148 61 237 82 48 11 55 22 55 91 0 53 3 64 16
64 15 0 16 11 12 88 -3 48 -2 78 3 67 6 -17 8 -17 8 -2 2 37 28 14 58 -50 17
-38 34 -78 37 -89 8 -26 42 -59 49 -47 3 4 1 58 -3 118 -6 89 -4 128 11 203
11 52 19 107 19 123 0 52 24 22 70 -87 24 -57 50 -110 58 -117 13 -10 14 -4 8
48 -5 50 -4 57 6 41 7 -10 20 -28 29 -39 l16 -20 35 21 c41 26 200 66 321 83
54 7 90 16 93 24 3 7 -4 46 -16 86 -12 39 -24 106 -28 148 -3 43 -11 82 -19
89 -15 16 -17 42 -3 42 6 0 10 -9 10 -20 0 -12 5 -17 14 -14 9 3 25 -13 45
-48 36 -60 119 -180 130 -188 5 -3 13 -15 20 -28 7 -12 17 -20 22 -16 6 4 5
14 -5 29 -17 26 -46 131 -46 168 0 60 44 30 86 -60 29 -60 36 -62 124 -37 30
9 102 28 160 42 l105 27 -1 70 c0 47 -11 106 -32 179 -41 141 -41 145 4 141
39 -3 55 -20 73 -74 7 -20 19 -50 27 -68 8 -18 22 -62 31 -99 12 -50 18 -62
25 -49 6 9 7 24 3 33 -4 9 -11 64 -16 122 -5 58 -12 134 -15 170 -6 59 -5 63
10 48 9 -9 21 -29 26 -43 7 -19 15 -25 26 -21 11 4 15 2 11 -8 -3 -8 1 -17 9
-20 8 -3 14 -14 14 -25 0 -11 11 -45 24 -75 13 -29 27 -73 31 -97 12 -78 26
-89 103 -89 100 0 228 -17 254 -34 13 -8 41 -16 63 -18 37 -3 40 -1 46 27 4
17 7 24 8 17 1 -19 27 -42 45 -42 9 0 23 -17 31 -37 9 -21 21 -41 28 -45 9 -6
8 -10 -3 -17 -8 -5 -17 -8 -21 -5 -19 11 -16 -15 3 -32 19 -17 21 -17 15 -1
-4 9 -2 17 3 17 6 0 10 -10 10 -22 0 -13 7 -36 15 -52 8 -15 12 -32 9 -37 -3
-5 -34 -9 -70 -9 -74 0 -91 16 -56 53 11 12 25 34 31 50 15 40 -5 35 -55 -14
-39 -38 -47 -42 -115 -49 -98 -11 -105 -4 -74 67 29 65 29 63 13 63 -7 0 -24
-21 -38 -47 -31 -59 -62 -77 -192 -112 -57 -15 -114 -33 -128 -41 -145 -77
-339 -245 -450 -390 -72 -95 -136 -213 -143 -265 -3 -22 -3 -32 -1 -22 3 9 9
17 13 17 4 0 13 16 20 35 17 49 31 43 31 -13 0 -60 10 -72 26 -32 7 16 18 30
25 30 14 0 5 -88 -18 -162 -32 -111 17 -35 71 108 40 107 125 266 185 347 50
68 135 146 147 134 3 -3 -15 -27 -40 -53 -25 -27 -46 -53 -46 -57 0 -4 22 -5
50 -1 40 5 56 3 86 -15 27 -16 40 -19 49 -11 8 6 31 10 52 8 36 -3 38 -5 38
-38 0 -35 -3 -38 -72 -56 -7 -2 -13 -17 -13 -34 0 -71 -54 -120 -132 -120 -36
0 -84 32 -94 63 l-8 22 -6 -24 c-3 -14 -2 -58 1 -98 9 -85 46 -159 112 -223
73 -69 93 -76 189 -62 89 13 178 40 231 69 39 21 87 63 87 76 0 5 7 24 16 43
12 25 15 57 12 136 -3 90 -7 111 -34 168 -72 152 -194 250 -310 250 -35 0 -53
4 -49 10 12 19 88 49 163 65 149 31 288 12 348 -46 37 -36 50 -64 59 -131 6
-47 22 -72 29 -46 2 7 14 51 26 98 24 87 57 166 67 157 18 -18 44 -214 74
-542 34 -377 19 -768 -41 -1123 -16 -95 -45 -236 -64 -315 -19 -78 -44 -187
-55 -242 -11 -55 -30 -136 -42 -180 -11 -44 -26 -105 -33 -135 -21 -87 -61
-235 -101 -365 -20 -66 -52 -171 -70 -232 -19 -62 -36 -123 -39 -137 -2 -13
-16 -59 -30 -102 -31 -99 -40 -144 -28 -144 5 0 18 35 30 78 57 213 274 813
289 798 2 -2 -20 -77 -50 -167 -102 -305 -137 -425 -157 -524 -26 -135 -60
-377 -60 -425 0 -47 -11 -50 -70 -20 -51 26 -52 19 -2 -11 65 -40 65 -41 57
-134 -6 -78 -8 -84 -25 -75 -10 6 -41 10 -68 10 -28 0 -108 11 -178 25 -151
30 -349 34 -482 10 -130 -22 -189 -5 -346 101 -127 87 -241 114 -436 104 -61
-3 -49 -5 65 -9 135 -6 143 -7 215 -42 41 -20 106 -59 144 -88 38 -28 128 -80
200 -115 197 -95 283 -168 419 -356 81 -113 85 -139 12 -75 -47 41 -108 75
-134 75 -10 0 -28 -9 -41 -20 -13 -11 -27 -20 -31 -20 -4 0 -14 -6 -21 -13 -7
-7 -33 -28 -58 -47 -25 -19 -74 -59 -110 -90 -36 -31 -81 -67 -100 -80 -19
-14 -48 -37 -65 -52 -34 -30 -68 -55 -170 -124 -38 -26 -72 -50 -75 -53 -3 -3
-18 -13 -35 -21 -16 -8 -32 -17 -35 -20 -3 -3 -22 -14 -42 -25 -21 -11 -38
-23 -38 -27 0 -10 1967 -10 1974 0 2 4 7 26 10 48 25 164 140 496 189 546 9 8
36 46 60 84 25 38 53 78 63 89 24 26 100 85 109 85 4 0 19 9 33 21 48 36 152
98 175 104 15 4 31 0 44 -12 28 -25 80 -154 94 -236 11 -64 22 -87 37 -73 10
11 -27 182 -54 243 -33 73 -148 246 -228 340 -34 40 -97 116 -141 169 -171
208 -181 214 -266 142 -27 -22 -51 -39 -54 -36 -12 11 97 417 115 428 4 3 31
64 60 135 28 72 57 144 65 160 32 71 105 277 100 284 -6 11 41 142 71 194 13
23 24 54 24 68 0 14 7 34 15 45 8 10 15 33 15 50 0 17 4 44 9 60 12 38 37 156
40 187 1 4 12 7 26 7 21 0 25 5 25 33 1 54 21 70 92 72 35 1 74 8 88 16 56 31
236 252 296 362 37 69 38 151 1 228 -39 82 -58 99 -109 99 -55 1 -66 10 -112
95 -38 69 -38 71 -34 155 6 90 32 165 58 165 9 0 25 -25 40 -62 27 -68 60
-103 96 -103 13 0 26 -4 29 -10 10 -15 63 -12 103 7 78 36 111 99 81 156 -37
67 -156 147 -221 147 -72 0 -162 -81 -223 -200 -19 -36 -44 -78 -57 -93 l-24
-29 7 84 c3 46 10 95 14 108 21 68 131 191 202 229 12 6 46 11 76 11 49 0 59
-4 100 -40 135 -119 260 -416 259 -616 0 -56 -5 -71 -42 -131 -22 -37 -66
-104 -97 -148 -64 -90 -121 -190 -194 -345 -52 -106 -92 -162 -139 -191 -32
-20 -144 -49 -189 -49 -44 0 -58 -18 -70 -86 -14 -84 -76 -371 -105 -491 -30
-122 -76 -244 -111 -295 -14 -20 -25 -40 -25 -43 0 -4 -14 -27 -31 -51 -20
-29 -28 -51 -24 -62 11 -29 60 39 130 183 74 150 102 249 170 595 20 102 42
191 49 198 21 21 110 5 144 -27 65 -61 226 -191 236 -191 3 0 40 -25 83 -56
84 -60 111 -74 131 -67 18 7 15 31 -9 64 -22 32 -9 40 24 14 26 -19 47 -8 47
25 0 16 4 31 9 34 5 3 163 -148 352 -337 336 -334 447 -441 501 -482 14 -11
43 -36 65 -55 21 -19 63 -55 93 -80 30 -24 77 -64 104 -87 26 -24 54 -43 62
-43 16 0 50 -18 79 -41 11 -9 30 -20 43 -24 22 -6 22 -6 22 99 0 58 -1 106 -3
106 -1 0 -34 -7 -72 -16 -130 -29 -120 -30 -188 17 -81 56 -163 127 -377 327
-265 248 -327 317 -340 375 -12 57 -14 337 -2 337 5 0 34 -18 65 -40 164 -118
394 -175 567 -141 83 17 213 73 285 125 l60 43 3 2151 c2 1720 0 2150 -10
2147 -10 -4 -12 -94 -10 -415 l3 -409 -28 -14 c-15 -8 -72 -17 -125 -20 -54
-4 -105 -11 -115 -16 -10 -5 -38 -19 -63 -30 -25 -12 -52 -25 -60 -30 -37 -20
-68 -36 -105 -54 -22 -10 -67 -45 -100 -77 -33 -32 -71 -61 -85 -65 -23 -5
-28 1 -74 99 -26 57 -65 126 -85 153 -20 27 -46 70 -59 95 -13 25 -36 55 -53
67 -16 12 -29 28 -29 35 0 12 -40 68 -105 151 -9 11 -24 35 -35 53 -11 17 -25
32 -33 32 -27 0 -79 38 -177 130 -56 52 -130 113 -164 134 -33 21 -93 61 -133
88 -86 58 -301 182 -433 249 -118 61 -273 114 -387 134 -48 8 -110 22 -138 30
-59 17 -337 46 -415 43 -30 0 -122 -5 -205 -9z m-595 -1748 c26 -30 50 -86 50
-117 0 -20 -5 -24 -29 -24 -32 0 -32 1 -73 130 -30 95 -26 132 8 74 13 -21 33
-50 44 -63z m1714 -7 c3 -9 6 -42 6 -74 0 -56 -2 -61 -36 -87 -36 -27 -166
-134 -294 -241 -55 -47 -150 -155 -150 -172 1 -18 22 -33 210 -150 112 -69
392 -230 401 -230 4 0 10 -9 14 -19 8 -26 -20 -91 -40 -91 -20 0 -73 27 -193
97 -99 58 -425 219 -504 248 -59 22 -78 43 -85 93 -11 83 10 109 264 327 250
216 374 315 389 315 7 0 15 -7 18 -16z m-1496 -99 c-3 -3 -9 2 -12 12 -6 14
-5 15 5 6 7 -7 10 -15 7 -18z m709 -577 c-3 -7 -5 -2 -5 12 0 14 2 19 5 13 2
-7 2 -19 0 -25z m-712 -308 c-27 -12 -43 -12 -25 0 8 5 22 9 30 9 10 0 8 -3
-5 -9z m-1965 -257 c0 -21 -3 -24 -9 -14 -5 8 -7 20 -4 28 8 21 13 15 13 -14z
m2358 -182 c-3 -39 -6 -46 -25 -49 -14 -2 -23 2 -24 10 0 7 -2 26 -3 42 -2 33
18 58 40 49 11 -4 14 -18 12 -52z m1269 -449 c78 -132 92 -206 54 -280 -24
-44 -146 -180 -155 -171 -3 3 2 57 13 120 10 63 24 166 31 229 17 162 19 166
57 102z m-3732 -352 c3 -6 -1 -13 -10 -16 -19 -8 -30 0 -20 15 8 14 22 14 30
1z m2905 -1891 c-12 -161 -27 -296 -35 -309 -12 -19 -185 -130 -185 -118 0 25
83 275 121 365 21 50 39 94 39 98 0 9 48 110 57 118 3 4 8 5 10 3 2 -2 -1 -73
-7 -157z m344 -173 c65 -70 80 -87 131 -156 27 -36 53 -69 60 -75 35 -30 175
-229 175 -249 0 -17 -16 -34 -59 -64 -32 -23 -67 -45 -77 -49 -11 -3 -34 -17
-51 -31 -46 -34 -192 -55 -348 -50 -66 3 -129 10 -140 16 -11 6 -78 18 -149
27 -72 8 -134 19 -140 25 -6 6 -5 56 4 141 12 125 15 134 42 161 15 15 43 35
61 44 17 9 47 27 65 41 17 13 36 22 41 18 5 -3 15 -31 21 -63 13 -61 49 -141
74 -161 13 -11 16 -7 21 26 4 21 14 70 22 108 8 39 22 108 32 155 20 98 29
115 79 152 55 40 87 37 136 -16z m-3430 -93 c-3 -21 -10 -42 -15 -47 -13 -14
-24 1 -12 16 6 7 13 25 17 41 10 41 18 33 10 -10z m-44 -207 c-31 -141 -119
-415 -142 -443 -11 -14 -48 -18 -48 -5 1 53 107 368 191 567 12 29 13 29 17 6
2 -13 -6 -69 -18 -125z m370 -90 c-5 -15 -10 -44 -10 -64 0 -72 -18 -110 -60
-132 -46 -24 -70 -25 -70 -6 0 21 114 239 118 227 2 -6 8 -11 14 -11 6 0 7 8
3 18 -4 12 -3 14 5 6 8 -8 8 -19 0 -38z m-60 -295 c-10 -37 -52 -81 -78 -81
-5 0 -15 -7 -22 -15 -7 -8 -19 -15 -26 -15 -18 0 -29 46 -17 73 10 22 146 100
151 86 2 -4 -2 -26 -8 -48z m-487 -163 c-8 -24 -24 -74 -34 -113 l-19 -70 5
98 c7 112 10 124 33 130 28 6 30 -1 15 -45z m385 -176 c-4 -10 -111 -105 -168
-149 -81 -64 -86 -43 -20 96 9 20 25 27 95 44 72 17 98 20 93 9z"/>
<path d="M2676 4950 c-56 -33 -246 -216 -283 -273 -39 -61 -24 -81 17 -22 45
66 215 234 279 275 28 19 51 37 51 42 0 13 -12 9 -64 -22z"/>
<path d="M3645 4440 c4 -6 11 -8 16 -5 14 9 11 15 -7 15 -8 0 -12 -5 -9 -10z"/>
<path d="M1315 4051 c-2 -5 26 -14 63 -20 37 -7 77 -14 90 -17 36 -7 25 13
-14 26 -46 16 -132 22 -139 11z"/>
<path d="M1184 4035 c-19 -14 -19 -14 1 -14 11 0 34 6 50 14 l30 13 -31 1
c-16 1 -39 -6 -50 -14z"/>
<path d="M1315 3181 c-3 -5 -1 -12 5 -16 5 -3 10 1 10 9 0 18 -6 21 -15 7z"/>
<path d="M2002 3137 c-16 -19 -31 -95 -32 -158 0 -86 48 -118 89 -60 55 76 -1
286 -57 218z"/>
<path d="M2630 2173 c0 -56 137 -245 200 -278 35 -18 82 -19 98 -3 28 28 5
103 -61 196 -34 47 -133 110 -149 94 -7 -7 -2 -12 12 -17 56 -18 166 -155 177
-220 5 -33 4 -35 -21 -35 -33 0 -90 51 -168 149 -40 51 -58 83 -58 102 0 19
-5 29 -15 29 -8 0 -15 -8 -15 -17z"/>
<path d="M1695 1880 c10 -11 20 -20 23 -20 3 0 -3 9 -13 20 -10 11 -20 20 -23
20 -3 0 3 -9 13 -20z"/>
<path d="M1740 1846 c0 -2 8 -10 18 -17 15 -13 16 -12 3 4 -13 16 -21 21 -21
13z"/>
<path d="M1780 1816 c0 -2 14 -14 30 -26 17 -12 30 -19 30 -16 0 2 -13 14 -30
26 -16 12 -30 19 -30 16z"/>
<path d="M2745 1780 c-17 -27 26 -73 48 -51 16 16 -1 61 -23 61 -10 0 -22 -5
-25 -10z"/>
<path d="M1970 1696 c0 -2 7 -7 16 -10 8 -3 12 -2 9 4 -6 10 -25 14 -25 6z"/>
<path d="M2040 1660 c0 -14 177 -89 225 -96 93 -12 169 -33 390 -107 253 -85
422 -150 550 -213 50 -24 81 -37 70 -28 -60 48 -284 140 -620 255 -126 44
-239 81 -250 83 -38 7 -200 56 -282 84 -46 16 -83 26 -83 22z"/>
<path d="M1718 1193 c7 -3 16 -2 19 1 4 3 -2 6 -13 5 -11 0 -14 -3 -6 -6z"/>
<path d="M6600 1018 c-29 -46 -57 -83 -132 -173 -9 -11 -33 -40 -53 -65 -73
-88 -313 -339 -417 -435 -142 -130 -224 -203 -231 -204 -4 0 -22 -15 -40 -33
-18 -18 -53 -50 -77 -70 l-45 -38 518 0 517 0 0 535 c0 294 -1 535 -3 535 -2
0 -19 -24 -37 -52z"/>
<path d="M1855 743 c-38 -20 -72 -39 -75 -43 -14 -19 -141 -76 -185 -83 -241
-39 -312 -62 -160 -52 101 6 138 14 245 52 87 31 230 113 248 142 17 29 8 27
-73 -16z"/>
<path d="M385 490 c27 -12 43 -12 25 0 -8 5 -22 9 -30 9 -10 0 -8 -3 5 -9z"/>
<path d="M1184 215 c-4 -9 -4 -18 -1 -21 8 -9 69 -22 227 -48 80 -14 164 -32
186 -40 30 -10 45 -11 52 -4 15 15 -4 48 -28 48 -10 0 -20 5 -22 12 -4 11 -18
14 -98 17 -26 1 -38 7 -45 24 -10 23 -11 23 -140 16 -16 -1 -51 1 -78 5 -38 6
-48 4 -53 -9z"/>
</g>
</svg>
