<?xml version="1.0" standalone="no"?>
<!DOCTYPE svg PUBLIC "-//W3C//DTD SVG 20010904//EN"
 "http://www.w3.org/TR/2001/REC-SVG-20010904/DTD/svg10.dtd">
<svg version="1.0" xmlns="http://www.w3.org/2000/svg">
<metadata>
Created by potrace 1.13, written by Peter Selinger 2001-2015
</metadata>
<g transform="translate(0.000000,190.000000) scale(0.100000,-0.100000)"
fill="#000000" stroke="none">
<path d="M4380 1880 c0 -5 -9 -10 -20 -10 -11 0 -20 -4 -20 -9 0 -5 -13 -14
-30 -21 -16 -7 -30 -16 -30 -21 0 -5 -6 -9 -13 -9 -8 0 -32 -18 -55 -40 -22
-22 -44 -40 -48 -40 -3 0 -17 -10 -29 -22 -40 -40 -80 -73 -108 -87 -15 -8
-27 -18 -27 -23 0 -4 -6 -8 -12 -8 -7 0 -30 -16 -52 -35 -21 -19 -42 -35 -46
-35 -4 0 -28 -20 -53 -45 -26 -25 -50 -45 -55 -45 -19 0 -105 -92 -133 -142
-26 -46 -29 -49 -24 -20 7 32 6 32 -22 21 -61 -23 -223 -99 -233 -109 -14 -14
-94 -50 -111 -50 -10 0 -19 -3 -19 -7 0 -10 -49 -33 -69 -33 -9 0 -27 -9 -41
-20 -14 -11 -33 -20 -42 -20 -9 0 -20 -4 -23 -10 -3 -5 -21 -10 -39 -10 -18 0
-41 -8 -54 -20 -12 -11 -33 -20 -47 -20 -14 0 -33 -4 -43 -9 -29 -14 -87 -31
-110 -31 -11 0 -24 -5 -27 -10 -3 -6 -21 -10 -39 -10 -18 0 -36 -3 -40 -7 -10
-10 -96 -32 -128 -33 -15 0 -30 -5 -33 -10 -3 -6 -28 -10 -55 -10 -31 0 -63
-8 -85 -20 -20 -11 -54 -20 -76 -20 -29 0 -50 -7 -71 -25 -34 -29 -59 -34 -35
-7 10 10 17 22 17 26 0 9 -464 0 -565 -10 -33 -3 -64 -9 -70 -14 -5 -4 -27
-10 -48 -14 -21 -4 -46 -9 -55 -12 -9 -3 -5 2 11 11 15 8 27 19 27 23 0 10
-96 32 -140 32 -57 1 -118 19 -146 43 -14 12 -44 24 -67 27 l-42 5 50 18 c28
10 69 28 93 39 37 18 42 25 42 54 l0 32 -57 -13 c-68 -16 -226 -26 -243 -15
-7 5 5 13 31 21 41 13 61 42 32 45 -7 1 -20 2 -28 3 -9 0 -15 11 -15 25 0 24
14 45 74 110 20 22 36 44 36 48 0 5 10 22 22 38 12 16 18 33 14 37 -4 5 -16
-3 -26 -17 -38 -51 -95 -119 -101 -119 -3 -1 -24 -18 -46 -39 -74 -71 -136
-97 -220 -93 -40 2 -14 61 44 102 11 8 23 27 27 42 7 31 5 31 -49 -9 -16 -12
-68 -32 -115 -44 -246 -64 -221 -65 -329 19 -81 65 -301 289 -301 308 0 5 -9
14 -20 21 -18 11 -20 10 -20 -21 0 -43 55 -105 233 -263 177 -157 233 -214
207 -214 -18 0 -19 -9 -22 -175 -3 -152 -1 -175 12 -173 8 2 20 19 27 38 11
32 13 32 17 -2 0 -7 10 -14 20 -16 14 -3 17 0 13 12 -11 29 11 17 25 -14 7
-16 16 -30 20 -30 5 0 8 -9 8 -20 0 -11 4 -20 9 -20 5 0 11 -13 14 -29 3 -16
12 -35 20 -43 23 -22 35 -104 41 -268 7 -181 16 -290 25 -290 9 0 31 200 31
283 0 37 3 67 6 67 13 0 33 -35 34 -57 0 -13 5 -23 10 -23 6 0 10 -8 10 -17 1
-22 23 -53 39 -53 6 0 11 3 11 8 -1 17 -37 142 -43 148 -4 4 -7 22 -7 41 0 18
-4 33 -10 33 -5 0 -10 15 -10 34 0 19 -4 37 -9 40 -5 3 -11 19 -13 36 -6 37 7
61 17 31 3 -11 11 -21 16 -21 5 0 9 -9 9 -20 0 -11 4 -28 9 -38 20 -39 30 -70
41 -129 8 -39 18 -63 26 -63 10 0 11 18 8 78 l-5 77 31 -35 c17 -19 44 -49 61
-67 16 -17 29 -38 29 -46 0 -14 20 -27 42 -27 16 0 -9 88 -32 110 -12 11 -110
213 -110 226 0 23 18 16 37 -13 23 -38 46 -59 70 -67 12 -4 38 -27 59 -53 36
-44 118 -93 157 -93 9 0 17 -4 17 -10 0 -5 9 -10 20 -10 11 0 20 -3 20 -8 0
-9 77 -49 112 -56 15 -3 33 -13 41 -21 8 -8 34 -17 57 -21 23 -4 44 -13 47
-20 3 -8 16 -14 30 -14 13 0 37 -7 52 -15 43 -22 113 -45 139 -45 12 0 22 -4
22 -10 0 -5 11 -10 25 -10 14 0 33 -4 43 -9 31 -16 88 -31 115 -31 14 0 36 -4
49 -9 13 -5 77 -17 143 -26 66 -9 159 -24 207 -32 101 -18 449 -16 468 3 8 8
-1 19 -30 39 -50 35 -44 47 7 14 65 -42 82 -49 115 -49 37 1 123 22 134 33 4
4 24 7 45 7 23 0 39 5 43 15 3 9 19 15 41 15 22 0 35 5 35 13 0 9 9 12 28 9
18 -2 35 2 45 12 8 9 24 16 34 16 10 0 36 9 58 20 22 11 47 20 57 20 10 0 18
5 18 10 0 6 13 10 28 10 16 0 34 8 42 20 8 11 24 20 35 20 12 0 31 9 43 20 12
11 30 20 40 20 11 0 30 11 43 24 13 13 35 27 48 31 14 4 34 16 45 26 11 11 25
19 31 19 17 0 56 45 48 54 -5 4 -3 7 2 6 26 -6 44 2 73 30 18 17 35 30 39 30
17 1 91 77 85 87 -4 6 -29 13 -57 17 -94 13 -115 18 -109 27 3 5 24 9 48 9 23
0 46 3 50 8 4 4 11 7 14 8 4 0 18 5 32 11 35 15 90 31 123 37 31 5 111 70 122
99 4 10 17 29 31 42 13 13 24 31 24 40 0 8 6 15 13 15 6 0 21 14 32 30 11 16
23 30 28 30 4 0 7 9 7 20 0 11 4 20 9 20 5 0 12 8 16 19 3 10 17 31 30 47 14
16 25 35 25 42 0 6 3 12 8 12 14 0 72 141 72 175 0 18 -5 20 -37 17 -36 -3
-37 -2 -19 12 11 9 26 16 34 16 18 0 51 37 57 64 8 40 16 111 21 200 6 85 -2
141 -27 188 -5 10 -9 23 -9 29 0 28 -30 39 -104 39 -44 0 -76 -4 -76 -10z"/>
</g>
</svg>
