<?xml version="1.0" standalone="no"?>
<!DOCTYPE svg PUBLIC "-//W3C//DTD SVG 20010904//EN"
 "http://www.w3.org/TR/2001/REC-SVG-20010904/DTD/svg10.dtd">
<svg version="1.0" xmlns="http://www.w3.org/2000/svg"
 width="398.000000pt" height="368.000000pt" viewBox="0 0 398.000000 368.000000"
 preserveAspectRatio="xMidYMid meet">
<metadata>
Created by potrace 1.13, written by Peter Selinger 2001-2015
</metadata>
<g transform="translate(0.000000,368.000000) scale(0.100000,-0.100000)"
fill="#000000" stroke="none">
<path d="M3895 3658 c-2 -7 -1 -73 3 -147 11 -202 -4 -547 -27 -651 -11 -47
-22 -98 -24 -115 -17 -107 -121 -359 -178 -434 -11 -13 -19 -31 -19 -40 0 -9
-9 -27 -20 -41 -11 -14 -20 -28 -20 -32 0 -4 -13 -27 -30 -51 -16 -25 -30 -48
-30 -52 0 -4 -8 -15 -18 -24 -10 -9 -33 -37 -51 -63 -17 -27 -35 -48 -39 -48
-4 0 -16 -14 -25 -30 -10 -17 -37 -52 -59 -78 -22 -26 -59 -69 -82 -96 -43
-51 -113 -123 -162 -167 -16 -14 -54 -52 -85 -85 -79 -84 -214 -195 -311 -255
-46 -29 -115 -74 -155 -101 -39 -26 -76 -48 -81 -48 -5 0 -30 -16 -55 -35 -25
-19 -56 -39 -69 -45 -13 -5 -45 -23 -73 -40 -48 -29 -138 -74 -180 -91 -62
-24 -116 -40 -160 -50 -27 -5 -68 -14 -90 -20 -22 -5 -74 -14 -115 -19 -41 -6
-93 -13 -115 -16 l-40 -5 40 33 c91 74 180 186 162 205 -3 3 -24 -9 -47 -27
-54 -43 -60 -33 -12 19 58 62 102 161 73 161 -6 0 -29 -23 -53 -50 l-43 -50
-5 32 c-8 50 -30 40 -54 -25 -26 -72 -95 -144 -177 -186 -32 -18 -59 -28 -59
-23 0 4 21 43 46 87 58 103 84 159 84 184 0 30 -11 26 -45 -16 l-29 -37 -7 24
c-4 14 -7 46 -8 72 -2 86 -35 198 -58 198 -12 0 -13 -8 -7 -42 20 -116 -3
-309 -46 -386 -28 -48 -94 -111 -106 -99 -6 5 24 107 49 167 8 19 17 47 21 63
5 22 3 27 -13 27 -10 0 -22 -7 -25 -16 -11 -28 -25 -4 -19 33 10 59 -19 36
-40 -33 -27 -89 -55 -138 -119 -215 -32 -38 -58 -73 -58 -78 0 -4 -12 -21 -27
-36 -27 -27 -29 -27 -118 -21 -49 3 -121 11 -160 16 -38 6 -90 13 -115 16 -25
3 -49 10 -55 15 -5 5 -24 9 -41 9 -18 0 -36 4 -39 10 -3 5 -19 10 -36 10 -16
0 -37 4 -47 10 -9 5 -46 19 -82 31 -36 12 -69 25 -75 30 -5 5 -19 9 -32 9 -13
0 -31 4 -41 9 -9 5 -41 14 -70 21 -48 11 -56 10 -70 -5 -16 -15 -15 -18 13
-41 34 -28 180 -104 199 -104 8 0 53 -13 102 -29 99 -32 167 -47 264 -56 36
-4 103 -13 150 -21 47 -7 121 -15 165 -17 80 -4 80 -4 100 -39 27 -49 114
-174 147 -213 16 -18 28 -40 28 -48 0 -9 8 -22 18 -29 21 -16 62 -78 93 -140
22 -47 33 -56 43 -40 10 17 -45 171 -76 211 -31 41 -20 45 22 7 22 -20 47 -36
55 -36 32 0 12 39 -50 98 -83 78 -71 81 19 4 38 -31 85 -68 105 -81 119 -79
181 -118 217 -136 48 -23 194 -152 194 -171 0 -15 39 -39 48 -30 3 4 -4 25
-16 49 -31 60 -42 75 -90 135 -24 28 -41 52 -38 52 3 0 28 -13 54 -30 105 -64
154 -43 63 27 -50 40 -64 49 -191 123 -42 25 -85 50 -96 57 -10 6 -16 15 -12
18 8 8 130 -58 253 -136 107 -68 232 -132 245 -124 18 11 10 25 -32 51 -23 15
-53 37 -66 49 -14 13 -42 31 -63 42 -21 10 -39 21 -39 26 0 4 -7 7 -15 7 -8 0
-15 4 -15 9 0 11 -168 117 -220 139 -41 17 -120 72 -120 83 0 4 12 4 28 -1 15
-5 60 -18 99 -30 40 -12 75 -26 78 -31 11 -16 55 -10 55 7 0 23 -22 39 -123
88 l-89 44 64 10 c34 6 104 16 153 22 190 23 428 83 517 131 10 5 25 9 35 9 9
0 65 22 123 48 58 27 130 60 160 73 30 13 67 31 82 41 14 10 30 18 36 18 10 0
87 44 184 105 31 19 84 58 116 85 33 28 64 50 70 50 12 0 183 157 270 247 35
36 71 82 82 103 10 20 26 42 34 49 9 8 16 19 16 26 0 7 18 35 41 61 22 27 50
67 61 89 12 22 40 68 64 103 23 34 48 79 54 100 7 20 18 51 25 67 6 17 22 57
34 90 13 33 27 69 31 80 18 43 85 273 98 340 6 28 13 96 16 152 3 57 11 115
19 130 39 78 57 583 26 707 -15 58 -34 82 -44 54z"/>
</g>
</svg>
