<?xml version="1.0" standalone="no"?>
<!DOCTYPE svg PUBLIC "-//W3C//DTD SVG 20010904//EN"
 "http://www.w3.org/TR/2001/REC-SVG-20010904/DTD/svg10.dtd">
<svg version="1.0" xmlns="http://www.w3.org/2000/svg"
 width="80.000000pt" height="49.000000pt" viewBox="0 0 80.000000 49.000000"
 preserveAspectRatio="xMidYMid meet">
<metadata>
Created by potrace 1.13, written by Peter Selinger 2001-2015
</metadata>
<g transform="translate(0.000000,49.000000) scale(0.100000,-0.100000)"
fill="#000000" stroke="none">
<path d="M739 444 c-18 -20 -46 -42 -62 -50 -27 -14 -28 -14 -33 15 -8 37 -40
69 -55 54 -8 -8 -6 -20 5 -42 20 -38 11 -40 -26 -4 -33 32 -47 24 -31 -18 11
-27 10 -29 -8 -24 -24 8 -24 -2 -1 -28 17 -19 16 -20 -12 -15 -57 11 -250 -62
-318 -121 -23 -19 -23 -28 0 -35 9 -2 1 -2 -19 1 -21 3 -40 0 -43 -6 -4 -5
-12 -8 -19 -5 -13 5 -35 -13 -74 -59 -62 -73 -48 -91 67 -90 56 0 87 5 105 17
14 9 25 12 25 7 0 -13 41 0 111 33 31 14 61 26 67 26 6 0 12 4 14 8 2 4 31 25
65 46 34 20 76 53 92 72 31 39 47 32 31 -12 -6 -15 -8 -30 -4 -33 9 -10 44 39
44 63 1 20 2 20 14 4 22 -29 29 -21 24 27 -4 33 -2 45 8 45 7 0 26 12 41 26
l28 25 -27 -5 c-14 -3 -34 -9 -45 -12 -10 -4 6 15 35 43 28 27 52 57 52 66 0
25 -12 21 -51 -19z"/>
</g>
</svg>
