<?xml version="1.0" standalone="no"?>
<!DOCTYPE svg PUBLIC "-//W3C//DTD SVG 20010904//EN"
 "http://www.w3.org/TR/2001/REC-SVG-20010904/DTD/svg10.dtd">
<svg version="1.0" xmlns="http://www.w3.org/2000/svg"
 width="32.000000pt" height="22.000000pt" viewBox="0 0 32.000000 22.000000"
 preserveAspectRatio="xMidYMid meet">
<metadata>
Created by potrace 1.13, written by Peter Selinger 2001-2015
</metadata>
<g transform="translate(0.000000,22.000000) scale(0.100000,-0.100000)"
fill="#000000" stroke="none">
<path d="M22 210 c-31 -13 -21 -26 25 -35 51 -9 127 -49 151 -80 11 -14 25
-25 31 -25 6 0 11 -4 11 -10 0 -5 7 -10 16 -10 9 0 24 -10 35 -22 12 -16 18
-18 19 -9 0 8 -7 22 -15 31 -12 13 -13 23 -5 44 14 37 13 49 -4 43 -8 -3 -41
12 -74 34 -65 42 -145 58 -190 39z"/>
</g>
</svg>
