<?xml version="1.0" standalone="no"?>
<!DOCTYPE svg PUBLIC "-//W3C//DTD SVG 20010904//EN"
 "http://www.w3.org/TR/2001/REC-SVG-20010904/DTD/svg10.dtd">
<svg version="1.0" xmlns="http://www.w3.org/2000/svg"
 width="375.000000pt" height="466.000000pt" viewBox="0 0 375.000000 466.000000"
 preserveAspectRatio="xMidYMid meet">
<metadata>
Created by potrace 1.13, written by Peter Selinger 2001-2015
</metadata>
<g transform="translate(0.000000,466.000000) scale(0.100000,-0.100000)"
fill="#000000" stroke="none">
<path d="M1580 4653 c-67 -11 -91 -25 -112 -66 -31 -62 -21 -178 30 -322 53
-151 51 -148 118 -160 73 -13 85 -34 15 -27 -63 6 -74 -12 -44 -72 11 -23 64
-129 116 -237 63 -128 112 -215 142 -250 25 -29 45 -55 45 -58 0 -3 23 -22 51
-41 56 -38 50 -55 -7 -21 -19 12 -42 21 -51 21 -24 0 -16 -61 47 -395 12 -60
26 -148 31 -195 6 -47 16 -121 23 -165 15 -95 18 -273 7 -405 -9 -99 -44 -292
-58 -313 -4 -6 -13 -37 -19 -67 -19 -91 -103 -330 -115 -330 -4 0 -19 -38 -33
-84 -15 -46 -35 -92 -44 -102 -10 -10 -26 -41 -36 -69 -11 -27 -22 -52 -25
-55 -3 -3 -19 -30 -35 -60 -27 -49 -170 -230 -183 -230 -3 0 -2 23 2 51 8 58
-2 199 -15 199 -4 0 -10 -12 -13 -28 -3 -15 -12 -67 -22 -116 -15 -83 -40
-154 -51 -143 -2 2 2 29 10 59 23 89 30 217 13 263 l-14 39 -21 -69 c-12 -37
-22 -85 -22 -105 0 -42 -27 -151 -41 -165 -5 -5 -9 13 -9 51 0 61 -33 149 -55
146 -6 -1 -13 -65 -16 -154 -7 -152 -14 -198 -30 -198 -4 0 -11 17 -15 38 -4
20 -15 61 -25 91 -12 33 -19 82 -19 126 0 53 -4 74 -14 78 -17 7 -36 -33 -36
-76 l0 -32 -18 22 c-18 24 -91 68 -99 60 -6 -7 30 -72 72 -131 46 -63 51 -86
37 -169 -14 -78 -44 -146 -50 -112 -2 11 -9 36 -17 56 -7 20 -21 70 -29 113
-16 78 -41 130 -56 121 -5 -3 -6 -21 -3 -40 6 -40 1 -43 -28 -14 -30 30 -36
15 -11 -30 41 -72 57 -336 27 -422 -20 -55 -39 -76 -95 -103 -25 -13 -90 -48
-145 -78 -122 -68 -232 -108 -573 -210 -66 -20 -83 -68 -24 -68 53 0 208 36
277 65 17 7 55 22 85 34 111 45 222 98 260 122 14 9 36 20 50 24 31 9 131 72
148 94 21 26 213 22 272 -6 80 -38 303 -124 313 -120 5 1 -11 16 -36 32 -24
17 -66 53 -91 82 -45 50 -46 52 -24 59 13 4 63 6 113 5 127 -2 269 9 257 21
-15 15 -120 38 -177 38 -42 1 -47 2 -30 12 24 14 118 16 303 4 86 -5 142 -5
142 1 0 5 -36 20 -81 33 -44 12 -77 26 -72 30 4 4 66 17 138 29 71 12 133 25
138 30 13 13 -101 20 -338 21 -121 0 -224 5 -229 10 -5 5 4 16 23 28 l32 19
-30 6 c-17 4 -44 1 -61 -5 -43 -15 -51 -1 -15 28 110 89 204 179 250 239 62
82 107 129 158 168 41 31 179 194 249 295 70 101 212 385 243 487 15 50 33
104 40 120 7 17 18 57 25 89 6 32 18 72 25 90 12 29 50 171 100 381 37 153 59
453 44 615 -19 215 -73 491 -101 516 -24 22 -27 17 -35 -47 -12 -109 -22 -81
-22 61 1 123 -2 156 -21 214 -25 80 -69 176 -80 176 -4 0 -13 14 -20 30 -7 17
-16 30 -20 30 -4 0 -10 8 -13 18 -6 19 -36 69 -52 88 -30 35 -45 55 -45 59 0
10 -208 214 -240 236 -19 13 -41 29 -47 35 -7 7 -27 16 -45 19 -18 4 -38 11
-43 16 -10 7 -133 31 -145 28 -3 -1 -16 -4 -30 -6z"/>
</g>
</svg>
