<?xml version="1.0" standalone="no"?>
<!DOCTYPE svg PUBLIC "-//W3C//DTD SVG 20010904//EN"
 "http://www.w3.org/TR/2001/REC-SVG-20010904/DTD/svg10.dtd">
<svg version="1.0" xmlns="http://www.w3.org/2000/svg" viewBox="0 310 310 750" preserveAspectRatio="xMidYMid meet">
<metadata>
Created by potrace 1.13, written by Peter Selinger 2001-2015
</metadata>
<g transform="translate(0.000000,308.000000) scale(0.100000,-0.100000)"
fill="#000000" stroke="none">
<path d="M4325 3068 c-16 -44 -57 -181 -67 -225 -7 -29 -16 -53 -20 -53 -5 0
-8 -7 -8 -15 0 -8 -4 -23 -9 -33 -5 -9 -15 -37 -22 -62 -7 -25 -20 -56 -29
-70 -9 -14 -27 -52 -39 -85 -12 -33 -38 -92 -57 -131 -19 -39 -34 -76 -34 -82
0 -20 -54 -117 -82 -147 -15 -16 -28 -34 -28 -38 0 -5 -12 -21 -28 -35 -15
-15 -36 -44 -47 -64 -11 -21 -35 -55 -55 -77 -70 -77 -90 -101 -90 -107 0 -8
-45 -49 -77 -71 -13 -8 -23 -19 -23 -25 0 -21 -232 -234 -302 -277 -21 -12
-38 -27 -38 -32 0 -5 -6 -9 -12 -9 -7 0 -37 -23 -65 -50 -29 -28 -61 -50 -72
-50 -21 0 -45 -23 -34 -33 3 -4 -2 -7 -12 -7 -10 0 -25 -8 -34 -18 -9 -10 -32
-26 -52 -35 -20 -9 -42 -23 -49 -32 -7 -8 -18 -15 -24 -15 -6 0 -25 -14 -43
-30 -18 -17 -40 -30 -51 -30 -10 0 -27 -9 -37 -20 -10 -11 -44 -28 -74 -36
-31 -9 -88 -31 -128 -50 -39 -19 -78 -34 -87 -34 -8 0 -18 -4 -21 -10 -3 -5
-14 -10 -24 -10 -10 0 -45 -13 -77 -29 -94 -47 -153 -71 -169 -71 -8 0 -15 -4
-15 -8 0 -4 -21 -14 -47 -21 -27 -8 -52 -17 -58 -21 -10 -7 -58 -18 -120 -26
-16 -3 -41 -7 -55 -10 -14 -3 -59 -10 -100 -15 -41 -5 -97 -13 -125 -18 -65
-13 -235 -14 -235 -2 0 5 10 13 22 17 12 3 36 13 55 20 18 8 36 15 40 15 20 2
43 21 43 34 0 8 6 15 14 15 18 0 96 85 96 105 0 18 -4 18 -33 4 -15 -7 -12 -1
9 18 18 15 37 38 43 51 11 20 9 22 -18 22 -18 0 -41 -10 -59 -27 -46 -43 -60
-53 -75 -53 -7 0 -23 -9 -35 -20 -12 -11 -24 -20 -27 -20 -3 0 -45 -18 -94
-40 -105 -48 -142 -53 -96 -14 106 91 145 137 145 173 0 25 -7 26 -32 4 -25
-23 -29 -14 -14 32 8 22 17 75 21 118 6 64 4 77 -8 77 -10 0 -16 -14 -19 -42
-3 -24 -15 -65 -27 -93 -49 -109 -85 -175 -95 -175 -7 0 -18 -9 -26 -20 -8
-11 -20 -20 -26 -20 -7 0 -26 -8 -43 -17 -16 -10 -33 -14 -38 -9 -4 5 -2 11 5
13 6 3 12 10 12 17 0 7 14 41 31 75 34 71 35 104 2 109 -17 2 -24 -5 -33 -34
-11 -33 -84 -114 -103 -114 -5 0 -25 -17 -46 -38 -20 -20 -56 -52 -80 -71
l-44 -34 -66 13 c-36 7 -72 17 -78 23 -7 5 -13 7 -13 4 0 -11 -122 24 -181 53
-34 16 -68 30 -76 30 -7 0 -13 5 -13 10 0 6 -9 10 -19 10 -11 0 -21 3 -23 8
-4 10 -87 52 -103 52 -7 0 -18 7 -25 15 -7 9 -29 23 -49 32 -20 9 -38 19 -41
22 -3 4 -25 17 -50 30 -25 14 -47 27 -50 30 -10 12 -98 51 -113 51 -25 0 -9
-28 48 -85 56 -54 81 -72 165 -112 30 -15 56 -31 58 -35 2 -4 12 -8 23 -8 10
0 19 -4 19 -9 0 -5 15 -14 33 -22 17 -7 60 -25 95 -41 34 -15 69 -28 77 -28 8
0 15 -4 15 -10 0 -5 15 -10 33 -10 18 0 37 -4 42 -8 11 -9 46 -20 155 -51 111
-32 143 -50 147 -86 3 -16 7 -32 11 -35 14 -10 50 -86 63 -132 7 -27 17 -48
21 -48 4 0 8 -12 8 -27 0 -16 9 -43 20 -61 11 -18 20 -40 20 -50 1 -18 23 -52
35 -52 8 0 1 78 -10 123 -9 34 8 36 23 2 6 -14 19 -25 27 -25 25 0 8 49 -36
102 -22 26 -39 49 -39 52 0 19 25 -4 83 -76 36 -46 77 -92 91 -102 14 -10 53
-44 85 -75 33 -31 71 -64 85 -74 15 -10 33 -33 40 -52 8 -19 24 -44 35 -57 12
-12 21 -28 21 -36 0 -18 47 -82 61 -82 17 0 -8 79 -57 177 -24 49 -18 54 24
18 33 -28 62 -33 62 -11 0 16 -26 46 -41 46 -5 0 -9 7 -9 15 0 7 -20 30 -43
50 -45 38 -183 185 -173 185 3 0 41 -31 84 -69 70 -62 92 -77 168 -119 13 -7
24 -20 24 -28 0 -7 6 -14 14 -14 8 0 37 -18 65 -40 49 -39 71 -49 71 -31 0 12
-40 62 -67 84 -13 10 -23 24 -23 30 0 14 -94 97 -109 97 -6 0 -11 6 -11 14 0
18 -50 61 -102 87 -55 28 -42 34 17 9 26 -11 50 -18 53 -16 2 3 -1 20 -8 37
-17 39 -76 83 -143 105 -66 22 -46 30 24 10 29 -9 71 -16 93 -16 23 0 57 -4
76 -10 110 -29 481 -46 640 -28 103 11 255 33 335 49 28 5 63 11 78 13 16 2
40 9 55 14 15 5 47 15 72 22 25 6 53 16 62 21 10 5 27 9 37 9 11 0 23 5 26 10
3 6 15 10 26 10 10 0 19 5 19 10 0 6 11 10 25 10 14 0 44 9 68 19 23 11 59 25
80 32 21 7 46 21 57 31 11 10 26 18 35 18 8 0 15 5 15 10 0 6 12 10 26 10 29
0 62 16 84 40 8 9 41 29 72 44 31 15 66 35 76 44 11 10 34 28 52 42 19 14 48
40 66 57 19 18 36 33 39 33 11 0 165 157 165 168 0 7 6 12 14 12 7 0 21 12 30
26 10 14 39 48 67 76 27 27 49 55 49 62 0 6 9 18 20 26 11 8 20 20 20 28 0 7
15 28 34 47 19 19 42 50 52 70 9 19 20 35 25 35 5 0 9 7 9 17 0 9 12 31 26 50
29 38 44 103 24 103 -6 0 -25 -9 -42 -21 -35 -25 -50 -18 -17 8 39 31 84 77
111 113 14 19 37 48 51 64 24 28 47 87 47 122 0 11 9 44 20 74 11 30 20 65 20
77 0 12 4 24 9 27 8 5 14 30 33 136 27 159 26 519 -2 598 -12 32 -37 43 -45
20z" transform="rotate(-90)" />
</g>
</svg>
