<?xml version="1.0" standalone="no"?>
<!DOCTYPE svg PUBLIC "-//W3C//DTD SVG 20010904//EN"
 "http://www.w3.org/TR/2001/REC-SVG-20010904/DTD/svg10.dtd">
<svg version="1.0" xmlns="http://www.w3.org/2000/svg"
 width="485.000000pt" height="243.000000pt" viewBox="0 0 485.000000 243.000000"
 preserveAspectRatio="xMidYMid meet">
<metadata>
Created by potrace 1.13, written by Peter Selinger 2001-2015
</metadata>
<g transform="translate(0.000000,243.000000) scale(0.100000,-0.100000)"
fill="#000000" stroke="none">
<path d="M1445 2420 c-97 -9 -185 -23 -252 -39 -24 -6 -60 -15 -80 -20 -86
-22 -121 -32 -187 -55 -37 -14 -71 -27 -74 -31 -14 -14 46 -36 135 -50 89 -14
44 -20 -153 -20 l-204 0 -25 -27 c-14 -16 -30 -28 -34 -28 -5 0 -24 -14 -42
-31 -19 -18 -50 -44 -69 -58 -19 -14 -55 -46 -80 -71 -25 -25 -57 -51 -72 -59
-16 -8 -28 -19 -28 -25 0 -6 -20 -30 -44 -53 -25 -24 -41 -43 -38 -43 4 0 3
-4 -3 -8 -20 -14 -71 -88 -92 -132 -76 -157 -82 -175 -93 -286 -9 -82 -9 -116
-1 -132 6 -11 11 -34 11 -49 0 -71 87 -183 158 -203 56 -16 269 -25 284 -12 7
5 33 12 58 13 25 2 60 12 78 23 34 19 34 19 28 80 -6 65 7 54 19 -16 3 -20 12
-39 20 -42 14 -5 58 6 100 25 11 5 34 13 50 19 55 20 85 35 85 42 0 5 9 8 19
8 11 0 21 3 23 8 2 4 32 22 67 41 36 18 74 42 85 52 11 11 25 19 31 19 28 0
116 148 130 220 8 40 24 74 32 67 2 -3 -1 -39 -8 -81 -10 -57 -10 -81 -1 -100
10 -23 14 -25 39 -15 45 18 78 34 83 39 5 6 174 51 275 75 33 7 80 21 104 29
24 9 54 16 66 16 13 0 25 5 27 10 2 6 47 20 101 31 116 23 224 64 240 90 14
22 39 26 31 5 -4 -11 7 -13 58 -10 187 11 299 12 448 3 195 -11 283 -23 365
-48 33 -10 103 -29 155 -41 110 -26 229 -63 268 -84 15 -8 50 -21 77 -29 l50
-16 -60 -1 c-33 -1 -54 -4 -47 -7 6 -2 12 -10 12 -17 0 -19 31 -44 65 -51 56
-13 67 -17 60 -23 -4 -4 -35 -5 -69 -4 -66 4 -146 -12 -146 -28 0 -6 11 -10
25 -10 32 0 111 -19 152 -36 17 -8 44 -14 60 -14 37 0 69 -19 33 -20 -33 -1
-104 -27 -108 -40 -2 -5 -10 -10 -18 -10 -8 0 -20 -5 -27 -10 -7 -6 -23 -19
-37 -29 -34 -26 -20 -36 32 -22 77 22 122 27 215 27 99 -1 128 -16 51 -27 -25
-4 -53 -11 -64 -17 -10 -5 -35 -17 -54 -25 -75 -32 -90 -41 -90 -53 0 -6 11
-15 25 -18 23 -6 37 -36 17 -36 -12 0 -57 -89 -48 -97 3 -4 19 6 34 20 16 15
31 27 35 27 4 0 15 8 25 17 33 31 74 58 101 66 24 7 181 0 190 -9 7 -7 -21
-34 -36 -34 -7 0 -16 -7 -19 -15 -4 -8 -12 -15 -20 -15 -7 0 -21 -11 -29 -24
-9 -13 -29 -29 -45 -36 -19 -8 -30 -20 -30 -32 0 -15 4 -18 18 -13 9 4 28 10
42 13 14 2 33 12 43 20 24 21 295 39 347 22 32 -10 100 -80 150 -155 8 -12 37
-56 64 -96 75 -113 206 -401 206 -454 0 -58 62 -155 99 -155 14 0 24 62 16
102 -15 68 -69 223 -97 276 -17 30 -54 93 -84 139 -30 46 -54 88 -54 93 0 4
-4 10 -8 12 -5 2 -33 39 -62 83 -30 44 -75 108 -102 141 -26 34 -48 66 -48 72
0 6 -6 13 -12 16 -10 5 -10 7 0 12 7 3 12 24 12 47 0 23 5 60 11 82 6 22 14
59 19 83 5 23 15 52 22 65 16 30 19 43 23 102 1 28 15 87 30 133 28 81 27 116
-1 77 -28 -38 -94 -164 -94 -180 0 -24 -17 -17 -24 10 -9 34 -30 22 -43 -23
-10 -34 -11 -31 -13 43 -2 88 -1 85 -25 170 -9 33 -20 73 -24 90 -4 16 -14 31
-24 33 -15 3 -17 -9 -17 -120 -1 -223 -30 -71 -46 235 -5 91 -9 117 -20 117
-8 0 -14 -10 -14 -25 0 -42 -21 -125 -31 -119 -5 3 -9 16 -9 30 0 13 -4 24 -9
24 -4 0 -12 19 -15 43 -4 23 -11 60 -14 81 -4 22 -13 41 -20 44 -21 7 -2 -322
25 -417 11 -42 -15 -14 -28 29 -7 23 -18 40 -27 40 -25 0 -6 -159 29 -237 16
-36 29 -70 29 -76 0 -16 -130 111 -172 168 -42 57 -167 185 -181 185 -5 0 -21
12 -35 28 -15 15 -49 45 -77 67 -27 22 -51 43 -53 47 -2 4 -10 4 -19 1 -11 -4
-14 -2 -9 5 4 7 1 12 -8 12 -9 0 -16 6 -16 13 0 12 -34 47 -46 47 -3 0 -16 11
-30 25 -23 23 -123 75 -144 75 -5 0 -25 16 -46 35 -20 19 -46 35 -57 35 -11 0
-36 10 -56 23 -60 37 -75 46 -101 58 -14 6 -33 15 -42 20 -10 5 -22 9 -28 9
-6 0 -23 8 -37 17 -32 21 -95 44 -102 37 -2 -2 9 -18 25 -36 27 -30 28 -31 3
-12 -15 10 -42 31 -60 45 -38 29 -96 46 -283 84 -71 14 -136 30 -146 35 -10 5
-33 12 -51 14 -19 3 -61 10 -94 15 -251 43 -554 59 -760 41z"/>
</g>
</svg>
