<?xml version="1.0" standalone="no"?>
<!DOCTYPE svg PUBLIC "-//W3C//DTD SVG 20010904//EN"
 "http://www.w3.org/TR/2001/REC-SVG-20010904/DTD/svg10.dtd">
<svg version="1.0" xmlns="http://www.w3.org/2000/svg"
 width="604.000000pt" height="571.000000pt" viewBox="0 0 604.000000 571.000000"
 preserveAspectRatio="xMidYMid meet">

<g transform="translate(0.000000,571.000000) scale(0.100000,-0.100000)"
fill="#000000" stroke="none">
<path d="M0 2919 l0 -2791 30 19 c241 150 528 399 719 623 74 86 90 99 126
100 36 0 244 -67 263 -85 20 -18 72 -180 72 -222 0 -20 -11 -69 -25 -110 -27
-77 -52 -275 -40 -321 3 -13 24 -48 46 -78 36 -49 43 -54 77 -54 37 0 37 1 69
78 18 42 42 106 53 142 31 105 66 205 81 231 11 18 15 93 20 304 l5 280 38
120 c20 66 39 140 42 165 13 114 22 134 67 145 22 6 33 1 60 -27 19 -19 47
-43 64 -53 34 -20 31 -20 318 29 184 32 355 53 500 62 61 3 130 10 155 16 25
5 79 13 121 18 42 5 104 18 137 29 34 12 76 21 94 21 91 0 282 76 428 170 118
76 231 206 311 355 62 117 163 286 201 336 18 24 56 77 83 118 51 75 87 111
111 111 21 0 17 -31 -20 -174 -32 -120 -46 -194 -64 -331 -4 -27 -7 -185 -7
-350 l1 -300 34 -135 c32 -128 91 -280 109 -280 4 0 11 152 14 338 5 308 10
380 35 452 3 8 11 -37 17 -100 7 -63 18 -128 24 -143 6 -16 11 -41 11 -57 0
-16 4 -32 10 -35 6 -3 10 -19 10 -36 0 -16 5 -39 12 -52 6 -12 14 -28 17 -36
18 -38 27 2 33 141 9 220 18 370 24 396 8 38 21 16 27 -45 18 -187 29 -270 37
-288 4 -11 11 -38 14 -59 6 -47 23 -68 36 -46 5 8 7 24 4 35 -2 11 2 117 10
235 14 207 51 448 91 587 8 28 15 60 15 72 0 11 7 35 15 53 8 18 26 74 42 123
15 50 36 106 46 125 11 19 51 96 89 170 38 74 83 152 99 172 16 20 29 41 29
46 0 12 26 23 34 15 3 -4 6 -27 6 -51 0 -59 20 -172 30 -172 4 0 11 21 15 48
4 26 17 72 30 102 41 95 156 333 160 329 2 -2 -1 -24 -6 -49 -82 -417 -103
-705 -40 -535 12 31 21 60 21 64 0 5 7 14 15 21 13 11 15 8 15 -22 0 -28 10
-43 54 -87 42 -41 65 -77 97 -148 24 -51 48 -93 55 -93 7 0 14 27 19 75 7 79
20 104 31 58 20 -90 27 -118 57 -210 17 -57 35 -103 39 -103 5 0 8 99 8 220 0
121 4 220 8 220 5 0 12 -48 15 -107 13 -205 30 -241 41 -85 13 174 16 206 31
282 7 41 23 129 35 195 12 66 44 210 72 320 27 110 53 218 58 240 17 93 81
413 90 453 22 94 0 677 -35 952 -18 134 -68 382 -91 440 -7 19 -25 74 -39 123
l-26 87 -2920 0 -2919 0 0 -2791z m3707 2719 c-3 -13 -9 -40 -12 -60 -11 -58
-23 -62 -96 -34 -94 36 -161 71 -183 95 l-19 21 158 0 157 0 -5 -22z m278 -33
c-7 -31 -13 -59 -13 -63 -10 -71 -26 -152 -32 -152 -14 0 -97 50 -113 68 -16
17 -15 22 9 70 14 29 32 52 40 52 7 0 21 12 31 28 30 45 37 51 65 52 l26 0
-13 -55z m-495 -48 c52 -23 112 -53 134 -67 l38 -25 -5 -70 c-4 -38 -11 -126
-17 -195 -17 -196 4 -283 35 -143 16 71 64 232 75 254 5 9 11 28 14 44 3 15 8
30 11 33 9 9 72 -28 121 -71 l44 -39 0 -157 c0 -161 14 -319 30 -335 12 -12
30 35 31 82 1 87 16 73 28 -27 12 -101 33 -172 44 -154 6 10 10 29 22 113 10
72 37 194 46 210 5 9 9 -44 9 -125 0 -190 6 -208 79 -244 68 -35 139 -109 213
-222 28 -43 56 -80 63 -83 22 -8 47 31 72 111 l23 78 -6 -110 c-7 -118 0 -127
36 -48 l17 38 -5 -55 c-5 -54 -4 -55 15 -37 11 9 22 17 25 17 7 0 1 -77 -10
-134 -12 -60 0 -108 33 -130 30 -19 78 -82 80 -104 3 -26 12 -48 81 -192 35
-75 64 -143 64 -152 0 -22 10 -48 19 -48 4 0 30 30 58 68 55 73 134 244 190
410 20 57 37 101 40 99 4 -5 -29 -133 -67 -262 -11 -38 -22 -79 -24 -90 -10
-52 -19 -75 -29 -75 -6 0 -7 -3 -4 -6 4 -4 -2 -19 -12 -33 -10 -14 -22 -41
-26 -58 -3 -18 -11 -33 -16 -33 -5 0 -9 -6 -9 -14 0 -7 -6 -19 -14 -25 -8 -7
-17 -26 -20 -44 -9 -42 -68 -86 -171 -125 -66 -25 -86 -37 -114 -73 -18 -24
-51 -63 -72 -87 -33 -37 -41 -41 -59 -32 -14 8 -20 21 -20 48 0 42 -29 95 -61
112 -63 34 -169 52 -227 39 -75 -18 -196 -56 -243 -77 -24 -10 -68 -30 -97
-43 -36 -16 -67 -40 -95 -74 -23 -27 -45 -52 -48 -55 -3 -3 -17 -25 -30 -50
-22 -41 -24 -56 -24 -190 0 -153 15 -220 49 -220 19 0 20 -19 3 -41 -7 -9 -43
-34 -81 -55 -71 -40 -93 -64 -58 -64 18 0 130 57 160 82 22 18 10 89 -31 178
-20 44 -30 160 -15 175 4 4 19 -7 35 -24 56 -62 170 -52 261 23 50 41 153 150
203 216 23 30 28 33 40 19 23 -24 40 -59 29 -59 -5 0 -9 -16 -8 -35 1 -20 -4
-41 -10 -47 -7 -7 -12 -20 -12 -30 0 -30 -28 -65 -76 -95 -67 -43 -56 -65 30
-58 51 4 60 -9 26 -40 -10 -9 -36 -42 -56 -71 -21 -30 -43 -54 -49 -54 -46 0
-296 -352 -407 -573 -66 -131 -163 -253 -258 -322 -61 -44 -224 -131 -296
-156 -33 -11 -97 -26 -144 -34 -47 -7 -121 -22 -165 -33 -100 -25 -211 -42
-272 -42 -25 0 -74 -4 -107 -9 -34 -6 -115 -15 -181 -21 -66 -6 -211 -27 -323
-46 -112 -19 -214 -34 -226 -34 -34 0 -78 56 -124 155 -40 87 -42 94 -44 205
-3 114 -3 116 25 145 58 61 127 175 152 251 20 60 25 97 25 174 0 54 -3 105
-6 114 -4 12 -19 16 -53 16 -48 -1 -80 -19 -161 -94 -46 -43 -239 -173 -277
-186 -15 -6 -43 -18 -60 -27 -30 -16 -34 -16 -48 -2 -9 8 -18 40 -22 70 -3 30
-10 60 -16 67 -25 31 -9 88 70 252 44 91 84 176 88 190 4 14 21 54 37 90 33
72 105 287 132 395 10 39 24 92 32 118 7 27 19 90 25 140 13 103 25 136 35
100 3 -13 13 -23 21 -23 12 0 14 7 9 33 -4 17 -10 53 -13 79 -7 58 13 450 28
538 19 113 90 364 96 339 2 -9 12 -68 22 -130 20 -122 74 -340 116 -464 14
-42 25 -80 25 -86 0 -7 21 -68 47 -138 62 -169 63 -219 5 -381 -62 -175 -87
-241 -111 -289 -32 -62 -12 -77 25 -20 15 24 40 58 54 74 14 17 33 40 41 51
75 112 121 174 127 174 9 0 20 -27 68 -165 20 -55 42 -106 49 -114 15 -16 35
-7 35 16 0 9 16 69 35 133 19 65 37 137 41 161 4 24 10 49 14 54 11 13 40 156
40 192 0 16 9 53 20 82 11 30 17 64 14 77 -6 24 11 42 19 20 4 -9 14 -12 25
-9 17 4 22 -3 30 -44 15 -68 30 -103 43 -103 8 0 10 16 5 53 -3 28 -13 140
-21 247 -16 198 -12 301 24 565 l8 60 1 -83 c3 -118 27 -197 77 -247 46 -46
170 -135 233 -167 39 -20 45 -21 55 -8 7 9 31 21 54 28 83 25 198 140 269 270
17 31 34 56 38 55 37 -9 66 -25 66 -36 0 -8 7 -18 16 -21 9 -4 13 -2 8 5 -4 7
1 10 12 7 29 -5 73 -90 76 -150 3 -59 16 -66 32 -17 16 46 44 62 78 45 32 -17
39 -7 27 39 -4 16 -18 71 -30 120 -12 50 -30 108 -40 130 -9 22 -21 51 -24 65
-14 51 -151 294 -191 339 -48 54 -70 93 -79 143 -10 50 -32 69 -41 34 -3 -14
-10 -26 -15 -26 -5 0 -33 16 -63 35 -42 27 -56 42 -61 67 -13 59 -45 75 -45
23 0 -13 -4 -26 -9 -30 -11 -6 -61 14 -61 25 0 29 127 190 150 190 5 0 36 27
69 60 33 33 63 60 66 60 6 0 67 41 75 51 21 25 58 18 180 -34z m-2084 -161
c58 -50 91 -125 110 -247 44 -281 74 -432 90 -450 18 -20 18 -19 -10 -239 -8
-63 -18 -188 -22 -278 -7 -159 -7 -162 -24 -135 -26 41 -57 63 -89 63 -29 0
-61 -22 -61 -41 0 -5 -15 -41 -34 -79 -39 -78 -86 -212 -86 -243 0 -37 -22
-139 -52 -242 -16 -55 -32 -108 -35 -119 -3 -11 -9 -14 -14 -9 -11 11 17 223
32 237 5 6 9 28 9 50 0 23 9 64 19 92 25 65 45 177 37 207 -17 62 -50 75 -233
92 -99 9 -108 15 -132 87 -11 35 -39 149 -62 253 -23 105 -50 228 -60 275 -10
47 -24 123 -29 170 -20 154 18 317 88 382 29 27 210 138 224 138 5 0 21 8 35
17 49 33 117 51 189 52 66 1 73 -1 110 -33z m1574 -391 c16 5 20 2 20 -19 0
-22 5 -26 28 -26 27 -1 71 -43 54 -54 -4 -2 -40 -1 -79 4 -39 5 -84 5 -99 1
-83 -25 -147 -58 -202 -106 -23 -19 -23 -19 -16 0 23 66 48 106 88 143 25 23
51 39 59 36 8 -3 24 4 37 14 19 16 30 18 57 10 19 -5 43 -6 53 -3z m17 -155
c63 -22 99 -110 69 -168 -61 -119 -233 -102 -252 25 -9 60 13 106 63 132 43
23 77 26 120 11z m143 -206 c10 -11 11 -23 4 -42 -8 -22 -16 -27 -43 -27 -45
0 -61 24 -38 59 20 30 57 35 77 10z m-1651 -583 c25 -25 56 -96 72 -164 15
-72 7 -369 -14 -452 -8 -33 -22 -96 -32 -140 -19 -92 -106 -355 -140 -431 -13
-27 -33 -75 -45 -105 -25 -63 -255 -513 -279 -546 -26 -35 -120 -57 -248 -57
-62 0 -113 -3 -113 -6 0 -17 30 -38 70 -50 25 -7 64 -19 88 -26 68 -22 181
-43 262 -48 183 -13 219 -17 290 -28 91 -14 154 -39 173 -70 16 -24 43 -236
34 -259 -3 -8 -6 -2 -6 14 -1 15 -5 27 -11 27 -5 0 -10 9 -10 20 0 55 -56 108
-137 129 -21 6 -78 12 -128 15 -191 9 -467 41 -496 57 -26 13 -29 12 -29 -15
0 -19 18 -36 87 -83 48 -32 115 -71 148 -86 147 -70 253 -117 262 -117 5 0 57
-24 114 -52 119 -60 143 -90 131 -161 l-7 -39 -24 26 c-14 15 -36 26 -50 26
-30 0 -180 33 -272 61 -36 10 -72 19 -80 19 -20 0 -198 58 -267 87 -32 14 -52
11 -52 -8 0 -5 19 -37 43 -72 53 -78 176 -199 242 -238 54 -32 239 -148 320
-201 l51 -32 0 -166 c0 -141 -2 -159 -12 -125 -16 57 -49 126 -72 153 -12 14
-90 51 -193 92 -95 39 -177 74 -183 80 -16 16 -84 11 -108 -8 -12 -9 -62 -60
-112 -112 -187 -198 -444 -445 -521 -501 -44 -32 -99 -73 -123 -91 -23 -18
-47 -35 -52 -36 -7 -3 -10 213 -10 628 l0 633 36 41 c20 22 67 73 103 111 37
39 82 90 101 115 19 25 39 50 45 56 5 6 30 38 54 70 25 33 90 97 145 144 128
109 221 203 277 280 24 34 54 74 67 88 23 28 74 129 132 262 18 41 41 94 51
117 11 24 19 47 19 53 0 6 8 29 19 53 37 84 106 274 129 352 7 22 23 76 37
119 14 44 28 96 31 115 4 20 14 50 22 66 19 37 92 263 118 363 10 39 22 72 26
72 4 0 17 -9 27 -19z m992 -62 c-19 -84 -29 -116 -30 -91 -1 20 13 91 25 131
10 31 13 1 5 -40z m-1310 -666 c-12 -20 -14 -14 -5 12 4 9 9 14 11 11 3 -2 0
-13 -6 -23z m3019 -18 c0 -22 -67 -92 -98 -102 -55 -19 -111 17 -81 53 16 20
69 44 119 54 54 12 60 11 60 -5z m10 -107 c0 -19 -31 -48 -52 -48 -22 0 -23
18 -1 42 18 20 53 24 53 6z m380 -92 c0 -3 -4 -8 -10 -11 -5 -3 -10 -1 -10 4
0 6 5 11 10 11 6 0 10 -2 10 -4z m-2762 -721 l3 -51 -47 -12 c-48 -13 -119
-59 -163 -106 -14 -14 -28 -26 -33 -26 -5 0 -41 -21 -81 -47 -124 -82 -138
-87 -209 -77 l-63 9 130 74 c124 71 242 152 307 209 16 15 44 40 61 55 23 20
40 27 62 25 29 -3 30 -5 33 -53z"/>
<path d="M3450 4933 c0 -10 10 -29 21 -43 34 -42 84 -123 106 -170 28 -60 41
-125 47 -244 3 -54 8 -101 11 -104 10 -10 33 20 39 53 4 19 11 35 15 35 5 0
11 8 14 18 4 9 13 35 21 57 16 42 21 105 9 105 -5 0 -19 18 -33 40 -13 23 -32
40 -42 40 -12 0 -18 7 -18 21 0 12 -5 19 -12 16 -7 -2 -24 13 -38 34 -14 21
-37 51 -51 66 -13 15 -35 43 -47 61 -26 35 -42 41 -42 15z"/>
<path d="M2627 3843 c-11 -20 -17 -63 -8 -63 10 0 26 58 18 66 -3 3 -7 2 -10
-3z"/>
<path d="M4327 3518 c-20 -12 -36 -27 -34 -32 2 -6 53 -20 113 -33 60 -13 119
-26 132 -29 35 -10 27 17 -18 59 -22 20 -40 40 -40 45 0 5 -26 9 -57 10 -44 2
-67 -3 -96 -20z"/>
<path d="M3840 2515 c0 -14 5 -25 10 -25 6 0 10 11 10 25 0 14 -4 25 -10 25
-5 0 -10 -11 -10 -25z"/>
<path d="M3925 2481 c-6 -11 9 -23 19 -14 9 9 7 23 -3 23 -6 0 -12 -4 -16 -9z"/>
<path d="M2745 2354 c-179 -42 -304 -134 -305 -225 0 -42 4 -45 89 -55 55 -6
71 -3 163 32 147 54 198 96 200 164 2 58 -74 101 -147 84z"/>
<path d="M1179 5345 c-64 -20 -129 -82 -129 -124 0 -45 44 -127 72 -135 67
-17 134 -3 194 41 17 13 33 23 36 23 3 0 8 -19 11 -42 7 -53 -39 -223 -80
-293 -11 -19 -13 -19 -47 -2 -59 28 -113 22 -171 -18 -108 -74 -100 -58 -103
-204 -4 -158 11 -222 65 -282 47 -52 81 -69 137 -69 60 0 92 16 111 56 18 38
10 109 -19 179 -9 21 -16 61 -16 91 l0 53 70 53 c104 79 105 83 105 333 0 209
0 210 -28 266 -41 85 -101 106 -208 74z"/>
</g>
</svg>
