<?xml version="1.0" standalone="no"?>
<!DOCTYPE svg PUBLIC "-//W3C//DTD SVG 20010904//EN"
 "http://www.w3.org/TR/2001/REC-SVG-20010904/DTD/svg10.dtd">
<svg version="1.0" xmlns="http://www.w3.org/2000/svg"
 width="1131.000000pt" height="568.000000pt" viewBox="0 0 1131.000000 568.000000"
 preserveAspectRatio="xMidYMid meet">
<metadata>
Created by potrace 1.13, written by Peter Selinger 2001-2015
</metadata>
<g transform="translate(0.000000,568.000000) scale(0.100000,-0.100000)"
fill="#2aa4db" stroke="none">
<path d="M5606 5663 c-2 -2 -92 -13 -151 -19 -16 -1 -30 -3 -30 -4 0 -2 -36
-10 -75 -15 -19 -2 -47 -7 -61 -10 -14 -2 -39 -6 -55 -9 -33 -4 -81 -15 -104
-23 -8 -3 -26 -7 -40 -9 -37 -3 -54 -8 -60 -16 -3 -4 -18 -9 -33 -12 -16 -3
-43 -10 -61 -16 -42 -14 -76 -22 -101 -23 -11 -1 -23 -6 -27 -11 -3 -5 -16
-11 -28 -13 -11 -2 -33 -14 -48 -28 -15 -14 -32 -25 -39 -25 -7 0 -13 -5 -13
-11 0 -5 -4 -7 -10 -4 -5 3 -10 1 -10 -5 0 -6 -4 -9 -9 -5 -5 3 -12 1 -16 -5
-4 -6 -11 -8 -16 -5 -5 4 -9 1 -9 -6 0 -7 -3 -9 -6 -6 -4 4 -19 -2 -34 -13
-16 -11 -35 -20 -44 -20 -9 0 -16 -5 -16 -11 0 -5 -13 -15 -30 -20 -16 -6 -30
-15 -30 -21 0 -5 -4 -6 -10 -3 -5 3 -10 2 -10 -3 0 -4 -16 -15 -36 -22 -20 -8
-44 -25 -54 -37 -10 -13 -21 -23 -25 -23 -9 0 -80 -62 -79 -69 0 -3 -9 -13
-20 -22 -19 -15 -57 -16 -131 -3 -16 3 -39 6 -50 7 -11 2 -24 5 -30 8 -5 3
-90 4 -187 4 -128 -1 -181 -5 -192 -15 -11 -8 -16 -9 -16 -1 0 7 -8 8 -23 2
-20 -8 -57 -12 -119 -12 -10 0 -18 -4 -18 -8 0 -4 -15 -7 -32 -6 -18 0 -37 -2
-43 -6 -5 -4 -30 -9 -55 -12 -25 -3 -56 -8 -70 -11 -14 -4 -41 -8 -60 -10 -19
-2 -48 -8 -63 -15 -16 -6 -34 -11 -41 -11 -8 0 -19 -7 -26 -15 -7 -8 -16 -15
-20 -15 -4 0 -23 -6 -41 -14 -19 -8 -38 -14 -43 -14 -5 0 -12 -4 -15 -9 -3 -4
-24 -14 -46 -22 -22 -8 -82 -32 -134 -54 -51 -22 -101 -41 -110 -42 -21 -2
-74 -24 -81 -34 -3 -4 -25 -17 -50 -30 -49 -24 -70 -36 -115 -66 -16 -11 -32
-20 -35 -20 -12 -1 -67 -41 -93 -68 -15 -15 -27 -26 -27 -23 0 6 -38 -24 -72
-56 -10 -10 -19 -18 -21 -18 -4 0 -200 -197 -292 -292 -30 -32 -55 -62 -55
-68 0 -6 -4 -9 -9 -5 -5 3 -13 -4 -16 -16 -4 -11 -9 -18 -11 -16 -7 6 -122
-116 -154 -163 -22 -32 -52 -70 -72 -88 -10 -9 -18 -20 -18 -25 0 -5 -6 -15
-13 -22 -30 -35 -37 -45 -30 -45 4 0 1 -6 -7 -13 -18 -15 -38 -45 -46 -69 -4
-10 -10 -18 -15 -18 -5 0 -18 -17 -29 -37 -27 -51 -44 -77 -52 -83 -4 -3 -18
-26 -31 -51 -35 -65 -51 -93 -58 -99 -3 -3 -13 -23 -24 -45 -10 -22 -39 -74
-65 -115 -40 -66 -60 -103 -64 -120 -1 -3 -7 -15 -14 -27 -7 -13 -9 -23 -5
-23 4 0 2 -4 -5 -8 -7 -5 -15 -22 -18 -37 -3 -16 -10 -35 -16 -42 -6 -7 -7
-13 -2 -13 5 0 3 -4 -4 -8 -7 -5 -15 -21 -18 -37 -3 -15 -10 -37 -15 -47 -6
-11 -8 -22 -5 -25 3 -4 1 -12 -5 -20 -6 -7 -8 -13 -4 -13 4 0 2 -7 -5 -15 -7
-8 -10 -15 -6 -15 4 0 0 -12 -7 -27 -8 -16 -13 -36 -12 -45 2 -10 -2 -18 -8
-18 -7 0 -5 -5 3 -10 26 -17 3 -11 -50 12 -40 17 -61 36 -100 90 -28 38 -50
71 -50 74 0 4 -47 58 -87 99 -7 7 -9 15 -6 19 4 3 -1 6 -9 6 -9 0 -28 13 -41
30 -14 16 -30 30 -36 30 -5 0 -11 3 -13 8 -5 11 -69 57 -108 77 -19 10 -37 21
-40 24 -17 20 -72 38 -150 48 -25 3 -52 13 -60 22 -29 31 -133 17 -173 -23
-21 -21 -16 -216 7 -251 9 -13 16 -33 16 -44 0 -11 4 -22 9 -25 6 -4 39 -94
47 -128 1 -5 3 -11 4 -15 1 -5 2 -11 1 -15 0 -5 4 -8 10 -8 6 0 9 -7 6 -15 -4
-8 -2 -17 2 -20 5 -2 12 -22 16 -42 4 -21 10 -42 13 -48 4 -5 7 -15 8 -22 1
-6 7 -28 14 -48 7 -20 10 -39 7 -42 -3 -3 -1 -17 5 -32 5 -14 12 -34 14 -44
10 -45 13 -55 28 -96 9 -24 13 -47 10 -52 -3 -5 0 -9 6 -9 7 0 10 -6 7 -14 -3
-7 -1 -18 5 -24 5 -5 11 -20 13 -33 5 -32 10 -49 23 -82 7 -16 12 -34 12 -40
0 -7 9 -36 19 -65 11 -28 17 -52 14 -52 -3 0 -1 -6 4 -12 13 -17 40 -103 47
-148 2 -19 11 -66 18 -105 8 -38 13 -83 11 -100 -1 -16 -4 -53 -6 -81 -2 -28
-7 -56 -11 -63 -8 -13 -16 -51 -21 -96 -2 -16 -6 -48 -11 -70 -4 -22 -8 -59
-8 -82 -1 -24 -3 -43 -6 -43 -3 0 -6 -30 -7 -67 -4 -213 -2 -267 10 -279 4 -4
7 -22 7 -40 0 -18 4 -35 9 -38 7 -5 15 -38 22 -91 0 -5 6 -19 12 -30 6 -11 10
-23 9 -27 -1 -4 3 -20 9 -35 6 -15 12 -35 14 -44 2 -8 10 -40 19 -70 9 -30 17
-56 17 -59 1 -3 5 -15 10 -28 5 -13 12 -35 15 -50 4 -15 10 -31 14 -37 5 -5
14 -36 21 -67 8 -32 16 -58 19 -58 3 0 7 -12 8 -27 1 -14 14 -47 29 -72 l27
-46 7 33 c5 24 -7 75 -48 210 -30 97 -82 269 -116 382 l-62 205 0 180 c0 101
6 211 13 250 26 142 46 225 52 218 15 -16 58 -221 85 -398 8 -55 22 -138 30
-185 49 -269 84 -604 85 -825 0 -60 0 -60 29 -61 18 -1 28 3 26 10 -2 6 -9 95
-15 199 -16 285 -127 1017 -191 1257 -22 85 -43 166 -46 180 -42 217 -55 274
-64 291 -16 30 -158 505 -174 579 -7 36 -24 103 -38 150 -14 47 -22 87 -18 90
20 15 40 63 42 104 2 25 6 46 10 46 3 0 14 -21 24 -47 10 -27 34 -86 55 -133
20 -47 43 -101 49 -120 7 -19 42 -118 78 -220 133 -377 150 -427 176 -530 14
-58 29 -141 33 -185 3 -44 12 -114 20 -155 8 -41 19 -120 25 -175 16 -157 28
-264 38 -340 5 -38 16 -135 25 -215 9 -80 21 -179 26 -220 5 -41 14 -142 20
-225 6 -82 15 -180 21 -217 5 -37 9 -80 9 -96 l0 -30 62 2 63 1 8 45 c5 25 17
79 27 120 39 160 43 205 31 319 -19 166 -40 291 -60 351 -10 30 -24 87 -30
125 -13 75 -43 183 -98 359 -18 59 -42 143 -53 185 -10 42 -24 90 -30 106 -6
17 -33 98 -60 180 -26 83 -53 164 -59 180 -6 17 -25 73 -42 125 -17 52 -44
127 -59 165 -15 39 -46 124 -68 190 -23 66 -55 158 -72 205 -29 79 -29 86 -13
97 9 7 24 13 34 13 35 0 34 87 -2 180 -9 25 -29 72 -42 104 -25 58 -26 86 -3
86 55 0 336 -235 336 -281 0 -5 -26 -6 -58 -3 -66 7 -106 -8 -142 -53 -47 -60
-6 -186 133 -411 220 -355 266 -453 317 -678 22 -99 43 -188 46 -199 27 -102
37 -137 54 -180 10 -27 26 -77 35 -110 9 -33 22 -78 29 -100 8 -22 18 -58 24
-80 6 -22 27 -92 46 -155 56 -180 98 -370 111 -495 6 -64 17 -132 27 -172 9
-35 15 -43 34 -43 24 0 25 1 54 120 38 151 49 352 24 444 -9 34 -17 66 -18 71
-1 6 -4 15 -8 20 -3 6 -9 30 -13 55 -4 25 -20 76 -36 114 -16 37 -29 77 -29
87 0 11 -4 27 -9 37 -5 9 -17 35 -26 57 -20 49 -25 60 -69 161 -20 45 -36 84
-36 88 0 8 -94 217 -121 271 -12 22 -62 119 -111 215 -50 96 -116 215 -146
265 -104 169 -129 225 -101 225 16 0 39 66 39 115 0 25 -4 45 -9 45 -5 0 -19
26 -32 58 -13 31 -33 68 -46 82 -13 14 -23 28 -23 33 0 4 -9 17 -20 29 -35 38
-26 47 33 33 63 -15 121 -46 152 -83 12 -15 46 -36 75 -47 39 -15 74 -42 136
-104 46 -46 84 -88 84 -93 0 -5 24 -35 53 -66 63 -67 137 -163 163 -212 11
-19 38 -62 60 -95 23 -33 56 -87 74 -120 18 -33 47 -82 65 -110 17 -27 42 -70
55 -95 12 -25 27 -54 33 -65 6 -11 23 -42 37 -70 15 -27 37 -68 50 -90 33 -58
90 -194 90 -215 0 -10 6 -25 14 -32 16 -16 86 -198 86 -224 0 -9 8 -28 18 -42
10 -15 38 -87 62 -159 l42 -133 127 -109 c153 -132 342 -318 415 -409 29 -37
83 -100 120 -141 36 -40 66 -77 66 -80 0 -4 45 -7 99 -7 88 0 99 2 88 16 -32
40 -117 139 -148 171 -39 41 -77 82 -210 229 -103 114 -169 200 -169 220 0 12
-21 60 -80 182 -10 21 -15 40 -10 43 4 3 77 -29 161 -71 212 -105 420 -173
407 -132 -4 11 -96 72 -163 107 -45 24 -175 125 -211 163 -331 358 -447 745
-395 1323 5 61 15 134 20 164 6 29 11 55 11 57 0 2 9 4 20 4 11 0 20 -1 20 -2
0 -2 -7 -41 -15 -88 -23 -131 -17 -275 11 -248 3 4 12 37 20 73 21 101 30 107
37 29 3 -38 9 -77 12 -87 13 -33 34 -17 50 38 17 55 28 68 39 40 3 -8 15 -15
27 -15 12 0 38 -15 59 -32 101 -89 188 -154 196 -146 3 3 -6 28 -19 55 -14 26
-28 64 -32 83 -4 19 -11 37 -15 40 -13 8 -40 155 -40 217 1 98 36 227 88 328
87 168 387 393 632 475 56 18 88 21 223 21 86 0 161 -2 166 -5 5 -4 46 -13 92
-22 111 -21 371 -108 439 -147 30 -18 61 -35 70 -40 8 -4 31 -20 51 -35 108
-82 123 -92 132 -83 6 6 -9 35 -38 76 -46 64 -54 96 -17 62 19 -18 62 -23 62
-8 0 4 -9 20 -20 34 -24 30 -25 36 -4 52 15 10 15 13 -1 29 -28 27 -154 109
-230 148 -181 94 -374 163 -524 188 -92 15 -284 8 -396 -15 -156 -32 -367
-117 -489 -196 l-48 -32 -52 17 c-58 18 -86 20 -86 8 0 -13 31 -37 68 -53 17
-8 32 -16 32 -19 0 -3 -17 -21 -37 -40 -21 -19 -47 -48 -59 -63 -20 -29 -22
-29 -147 -34 -122 -6 -127 -5 -121 13 18 49 96 229 125 286 86 170 209 312
435 503 26 22 64 54 83 70 65 56 119 95 130 95 6 0 11 3 11 8 0 8 49 39 93 59
15 6 27 17 27 23 0 6 10 15 23 20 23 10 31 15 106 63 86 55 307 149 481 205
218 69 436 98 555 72 172 -38 164 -32 221 -164 26 -61 53 -116 58 -123 6 -6
43 -64 81 -128 112 -187 228 -331 395 -491 259 -247 481 -401 746 -514 100
-43 135 -53 216 -62 98 -10 149 -5 118 12 -8 4 -52 17 -98 28 -85 22 -116 39
-188 101 -22 20 -60 52 -84 71 -65 52 -303 293 -380 385 -36 44 -104 136 -149
205 -46 69 -92 137 -102 152 -18 25 -81 156 -113 233 -14 32 -14 37 0 42 12 4
215 -88 234 -107 11 -11 59 -31 120 -50 36 -12 74 -25 85 -29 11 -5 38 -13 60
-19 115 -30 272 -78 460 -142 116 -39 221 -74 235 -78 15 -5 26 -16 28 -30 4
-25 11 -27 46 -11 20 10 34 9 68 -4 24 -8 68 -21 98 -28 78 -17 154 -45 158
-58 2 -6 0 -11 -6 -11 -22 0 -132 -125 -132 -151 0 -6 -10 -25 -22 -41 -21
-30 -21 -31 -3 -44 22 -16 45 -18 45 -4 0 6 4 10 8 10 5 0 51 23 101 50 168
91 371 136 500 111 61 -12 121 -37 121 -50 0 -4 -28 -15 -62 -25 -137 -39
-196 -61 -268 -98 -41 -21 -77 -42 -80 -46 -3 -4 -25 -18 -50 -31 -48 -26 -74
-44 -147 -104 -25 -22 -70 -57 -100 -78 -50 -38 -69 -69 -40 -69 7 0 37 16 67
35 66 41 70 42 70 11 0 -16 -19 -41 -61 -80 -39 -36 -59 -62 -55 -71 8 -21 16
-19 70 16 27 16 50 28 53 25 7 -7 -45 -95 -87 -146 -42 -52 -64 -89 -56 -97 3
-3 66 42 141 101 75 58 138 106 141 106 4 0 23 13 43 29 53 42 267 170 337
202 34 15 108 40 165 56 96 25 119 27 289 28 166 0 194 -3 270 -24 98 -28 181
-63 200 -86 7 -8 19 -15 27 -15 17 0 171 -130 172 -145 1 -5 12 -19 26 -31 49
-42 116 -143 176 -264 60 -122 84 -200 105 -330 23 -146 14 -233 -28 -292 -7
-9 -9 -20 -5 -24 12 -12 61 28 178 148 l116 119 13 -31 c17 -41 28 -27 32 37
2 29 6 53 10 53 12 0 55 -64 87 -129 28 -59 30 -71 32 -185 2 -168 -10 -211
-123 -446 -90 -187 -227 -406 -262 -419 -18 -7 -76 -68 -70 -74 7 -7 -117
-142 -181 -197 -40 -34 -97 -72 -115 -75 -24 -5 -50 -18 -50 -27 0 -18 97 -1
194 32 84 29 305 146 374 198 18 14 34 23 36 21 4 -4 -55 -102 -115 -191 -64
-93 -114 -141 -215 -209 -84 -56 -218 -129 -237 -129 -3 0 -18 -5 -34 -11 -27
-10 -27 -11 -9 -25 14 -10 49 -14 119 -14 l99 0 -38 -53 c-79 -109 -142 -203
-163 -242 -55 -103 -85 -154 -117 -201 -40 -60 -41 -65 -11 -61 19 3 36 22 95
102 102 140 394 434 567 570 220 173 361 317 472 481 42 62 56 90 103 209 76
193 114 285 135 330 12 28 35 85 51 129 37 106 162 338 250 466 28 41 63 95
77 120 31 53 112 156 199 252 179 197 248 270 302 314 33 27 82 71 110 98 28
27 67 60 86 74 19 14 47 36 61 49 38 35 127 63 177 56 26 -4 42 -11 42 -19 0
-8 -4 -14 -10 -14 -5 0 -7 -6 -4 -14 3 -7 -2 -16 -10 -19 -9 -4 -16 -16 -16
-27 0 -11 -4 -20 -9 -20 -14 0 -80 -72 -87 -95 -4 -11 -22 -38 -40 -59 -27
-31 -34 -48 -34 -82 0 -24 5 -44 12 -46 21 -7 -14 -79 -115 -230 -86 -130
-207 -325 -207 -334 0 -4 -33 -62 -157 -278 -18 -32 -49 -95 -69 -140 -19 -44
-47 -101 -60 -126 -85 -152 -265 -684 -319 -944 -24 -113 -27 -145 -23 -257 4
-115 7 -132 29 -163 47 -69 70 -53 100 69 12 50 30 118 40 152 11 34 19 71 19
82 0 29 27 128 45 163 8 17 15 38 15 46 0 8 9 42 19 76 22 68 53 178 71 246 7
25 20 70 30 100 10 30 28 89 40 130 11 41 26 89 31 105 21 61 91 281 101 320
7 22 14 45 18 50 4 6 26 71 50 145 56 175 81 241 125 320 49 88 47 86 158 247
53 79 97 145 97 148 0 8 59 93 143 208 66 89 75 97 102 95 22 -2 31 -9 33 -24
2 -11 -38 -106 -89 -210 -50 -104 -113 -238 -139 -299 -26 -60 -66 -150 -88
-200 -68 -150 -133 -313 -178 -445 -23 -69 -59 -170 -79 -225 -21 -55 -45
-127 -55 -160 -10 -33 -31 -91 -48 -130 -16 -38 -68 -185 -115 -325 -95 -283
-97 -290 -123 -655 -21 -298 -13 -385 38 -385 19 0 72 72 80 110 39 180 94
459 108 550 20 127 45 269 60 342 6 27 15 72 21 100 6 29 14 67 19 83 4 17 22
104 39 195 18 91 38 192 46 225 9 33 24 101 35 150 10 50 24 106 29 125 5 19
14 51 19 71 17 66 93 258 147 374 13 28 38 84 55 125 17 41 57 129 90 195 32
66 72 150 89 186 19 41 38 69 50 72 11 2 31 27 45 53 26 49 26 49 22 14 -3
-19 -35 -120 -71 -225 -125 -356 -226 -650 -239 -695 -8 -25 -36 -110 -64
-190 -28 -80 -54 -163 -57 -185 -3 -22 -21 -94 -40 -160 -19 -66 -48 -169 -65
-230 -17 -60 -40 -141 -51 -180 -68 -230 -175 -678 -200 -835 -11 -69 -24
-152 -29 -185 -5 -33 -10 -70 -10 -82 0 -21 2 -22 28 -10 52 23 73 48 87 107
8 36 104 220 120 232 6 4 7 8 3 8 -4 0 5 22 21 48 16 27 32 59 36 70 3 12 10
22 14 22 4 0 15 19 25 43 10 23 30 65 43 94 13 29 23 54 22 55 -1 2 3 14 11
27 9 19 14 116 16 395 5 479 11 597 31 630 4 6 9 16 10 21 8 30 65 193 73 210
9 19 20 65 22 93 1 6 6 12 11 12 6 0 7 3 4 7 -4 3 -3 11 2 17 10 12 60 158 67
195 3 14 8 29 12 35 3 6 8 22 10 36 2 13 7 29 11 35 8 9 45 113 46 127 0 3 3
10 8 14 4 4 7 16 7 26 0 10 4 18 8 18 5 0 9 6 9 13 0 6 10 36 22 65 11 28 18
52 15 52 -4 0 -2 6 4 13 8 10 24 65 26 89 1 4 6 12 13 19 6 6 9 18 6 25 -3 8
-1 14 4 14 6 0 16 19 22 43 7 23 17 47 21 52 9 11 25 76 22 88 -1 4 2 7 6 7 5
0 9 6 10 13 1 23 11 52 41 126 17 40 31 81 31 91 0 11 5 22 10 25 6 4 8 11 5
16 -4 5 -1 9 4 9 6 0 11 8 11 18 0 10 3 22 7 25 3 4 8 17 9 30 3 28 8 49 15
62 3 6 4 16 3 23 -1 6 -2 29 -3 50 -2 58 -46 100 -103 100 -16 0 -28 -4 -28
-8 0 -4 -13 -13 -29 -20 -16 -6 -38 -20 -50 -31 -12 -11 -21 -18 -21 -15 0 3
-16 -10 -35 -27 -20 -18 -52 -42 -73 -52 -20 -11 -39 -23 -42 -27 -3 -3 -11
-8 -19 -10 -7 -2 -27 -15 -45 -30 -17 -16 -36 -28 -44 -28 -7 0 -10 -4 -7 -10
3 -5 2 -10 -3 -10 -5 0 -24 -16 -43 -36 -79 -83 -99 -103 -99 -96 0 4 -7 -2
-15 -12 -8 -11 -15 -16 -15 -10 0 5 -4 3 -8 -3 -4 -7 -31 -30 -60 -52 -29 -21
-66 -55 -82 -76 -17 -21 -30 -35 -30 -31 0 4 -6 1 -14 -6 -8 -7 -33 -29 -57
-48 -51 -42 -222 -214 -252 -254 -12 -15 -32 -38 -44 -51 -12 -13 -20 -25 -17
-28 3 -2 -2 -7 -11 -11 -12 -4 -23 10 -45 56 -15 35 -26 66 -24 70 3 5 0 8 -5
8 -6 0 -11 8 -11 18 0 9 -6 29 -14 43 -7 14 -16 43 -21 65 -4 21 -10 41 -14
44 -4 3 -18 34 -31 70 -13 36 -32 77 -41 91 -10 14 -16 29 -12 33 3 3 0 6 -7
6 -7 0 -10 3 -7 6 4 4 -2 19 -13 34 -11 16 -20 35 -20 44 0 9 -5 16 -11 16 -5
0 -8 4 -4 9 3 5 1 12 -4 16 -5 3 -21 29 -36 58 -14 28 -29 59 -34 67 -5 8 -22
41 -37 73 -15 31 -31 57 -36 57 -4 0 -8 9 -8 20 0 11 -4 20 -9 20 -10 0 -27
39 -23 53 1 4 -3 7 -8 7 -6 0 -10 6 -10 13 0 7 -9 23 -20 35 -11 12 -20 23
-20 26 0 3 -12 19 -27 35 -16 16 -49 52 -75 80 -26 28 -53 51 -60 51 -6 0 -8
3 -5 6 4 4 -12 29 -34 55 -23 27 -37 49 -32 49 4 0 0 5 -9 11 -10 5 -18 17
-18 24 0 8 -4 15 -10 15 -5 0 -10 7 -10 15 0 8 -3 15 -8 15 -4 0 -14 15 -21
33 -8 17 -23 39 -33 48 -10 9 -18 21 -18 26 0 5 -22 30 -50 56 -27 26 -50 51
-50 55 0 5 -11 15 -25 22 -14 7 -25 20 -25 28 0 7 -9 16 -20 19 -11 3 -20 9
-20 13 0 5 -23 30 -51 57 -81 76 -89 83 -89 77 0 -3 -32 25 -71 62 -39 38 -77
75 -85 82 -7 6 -16 12 -21 12 -5 0 -15 9 -23 20 -8 11 -18 20 -23 20 -10 0
-110 80 -115 93 -2 4 -10 7 -17 7 -7 0 -15 3 -17 8 -3 7 -113 82 -188 126 -25
15 -66 40 -91 56 -25 15 -57 31 -70 35 -13 4 -26 11 -29 15 -3 4 -28 20 -56
36 -28 16 -82 48 -120 70 -94 57 -195 108 -218 111 -11 2 -25 8 -33 14 -7 6
-13 9 -13 5 0 -4 -20 5 -45 19 -25 13 -47 25 -50 25 -3 1 -22 8 -42 17 -21 9
-40 17 -43 18 -3 0 -19 9 -37 18 -18 9 -40 17 -51 17 -10 0 -27 7 -38 15 -10
8 -27 15 -36 15 -10 0 -18 4 -18 8 0 5 -6 9 -12 10 -15 1 -53 10 -53 12 0 1
-11 4 -60 14 -5 1 -16 5 -22 9 -7 5 -13 6 -13 3 0 -3 -24 2 -52 11 -29 9 -61
16 -70 15 -10 0 -18 2 -18 6 0 4 -10 7 -22 8 -30 1 -90 12 -112 20 -10 4 -32
8 -50 9 -17 2 -31 4 -31 5 0 1 -13 4 -30 6 -48 8 -70 12 -70 14 0 2 -16 4 -35
6 -37 3 -78 9 -120 18 -13 3 -40 6 -60 8 -19 1 -39 4 -44 6 -5 3 -44 7 -85 9
-42 1 -114 5 -161 8 -82 6 -559 12 -564 8z m5541 -2169 c3 -10 -7 -29 -30 -52
-19 -20 -50 -62 -69 -93 -18 -30 -43 -67 -54 -82 l-22 -27 -52 35 c-41 27 -62
35 -98 35 l-46 0 34 35 c19 20 64 54 100 77 36 23 76 48 90 57 22 14 67 25
123 29 10 1 20 -5 24 -14z m-529 -2429 l-5 -310 -42 -89 c-23 -48 -63 -125
-88 -170 -26 -44 -75 -137 -111 -206 l-64 -125 7 60 c19 180 177 838 259 1082
9 27 21 68 28 93 l12 45 4 -35 c2 -19 2 -174 0 -345z"/>
<path d="M3520 4028 c-116 -24 -223 -53 -310 -85 -52 -19 -118 -43 -147 -53
-171 -61 -493 -274 -493 -326 0 -23 12 -17 107 54 152 111 174 126 275 181
143 76 242 108 368 115 336 21 469 24 620 15 188 -10 265 -21 309 -43 34 -18
61 -21 61 -7 0 27 -231 112 -385 142 -109 21 -323 25 -405 7z"/>
<path d="M4023 3699 c-10 -4 -52 -10 -93 -14 -154 -15 -266 -32 -287 -44 -28
-14 -33 -57 -5 -46 36 15 170 27 237 21 159 -13 345 -76 482 -163 29 -18 57
-33 63 -33 16 0 11 32 -11 65 -10 17 -23 40 -29 53 -18 42 -113 127 -155 139
-57 16 -181 30 -202 22z"/>
<path d="M7360 3134 c-86 -10 -249 -68 -265 -94 -5 -8 -2 -9 11 -1 38 21 97
41 124 41 78 0 165 -79 184 -167 12 -55 -70 -182 -135 -210 -41 -17 -151 -17
-193 1 -20 8 -47 34 -66 61 -26 38 -31 54 -28 91 2 24 2 44 1 44 -12 0 -47
-99 -63 -176 -27 -128 -25 -201 6 -325 50 -199 72 -219 279 -249 44 -6 157
-27 250 -47 94 -19 206 -41 250 -49 44 -8 105 -21 135 -29 30 -7 78 -17 105
-21 28 -3 58 -10 67 -15 20 -11 44 -3 52 17 3 7 -2 33 -11 57 l-16 44 36 37
c71 73 127 238 127 373 0 185 -80 366 -202 460 -73 56 -135 87 -253 126 -79
26 -107 30 -225 32 -74 2 -151 1 -170 -1z m263 -656 c33 -17 47 -35 47 -58 0
-45 -46 -62 -170 -64 -62 -1 -81 3 -112 22 -21 13 -38 28 -38 33 0 5 15 25 33
44 32 33 33 34 125 34 53 1 103 -4 115 -11z"/>
<path d="M3375 3111 c-51 -14 -120 -45 -151 -68 l-29 -22 31 -1 c31 0 81 -31
137 -83 22 -22 27 -34 27 -74 -1 -68 -43 -150 -97 -187 -39 -27 -49 -29 -125
-28 -103 3 -140 14 -174 55 -22 27 -25 38 -21 80 l4 49 -30 -48 c-41 -67 -53
-97 -71 -186 -23 -113 -21 -189 11 -283 30 -91 39 -108 104 -188 42 -51 47
-60 39 -87 -10 -36 -2 -43 48 -42 34 1 248 54 477 117 169 47 400 106 495 127
52 12 98 26 102 32 4 6 -1 19 -10 29 -15 17 -17 41 -13 201 3 158 0 192 -18
270 -12 49 -33 111 -48 139 -37 67 -113 131 -203 169 -75 32 -76 32 -265 35
-104 1 -203 -2 -220 -6z m319 -638 c9 -22 -20 -63 -44 -63 -11 0 -20 -4 -20
-10 0 -5 -15 -10 -34 -10 -19 0 -38 -4 -41 -10 -3 -5 -19 -10 -36 -10 -16 0
-29 5 -29 10 0 6 -13 10 -29 10 -20 0 -30 6 -34 19 -8 30 5 39 63 45 59 6 109
18 150 34 29 11 46 7 54 -15z"/>
<path d="M5537 2305 c-56 -50 -94 -202 -59 -237 7 -7 40 -14 75 -16 61 -4 64
-3 90 28 38 44 37 116 0 191 -33 64 -62 73 -106 34z"/>
<path d="M5454 907 c-72 -77 -99 -110 -137 -164 -35 -50 -136 -243 -155 -298
-25 -71 -82 -349 -82 -400 l0 -41 435 0 c314 0 435 3 435 11 0 7 -4 36 -10 66
-5 30 -19 115 -30 189 -44 286 -105 437 -231 575 -98 108 -107 115 -144 115
-26 0 -42 -10 -81 -53z m167 -24 c47 -34 65 -68 54 -104 -10 -32 -88 -59 -171
-59 -83 0 -124 12 -124 36 0 16 51 81 119 152 36 37 37 36 122 -25z"/>
</g>
</svg>
